<svg xmlns="http://www.w3.org/2000/svg" version="1.1" xmlns:xlink="http://www.w3.org/1999/xlink" xmlns:svgjs="http://svgjs.dev/svgjs" viewBox="0 0 5.072691078205458 3.0753807302871126"><g transform="matrix(1,0,0,1,0.32708134525719323,0.6476868140071929)"><g><path d=" M 0.1630859375 0.08203125 L 0.30859375 0.08203125 L 0.462890625 0.916015625 L 0.3349609375 0.916015625 L 0.31201171875 0.7666015625 L 0.15966796875 0.7666015625 L 0.1376953125 0.916015625 L 0.00927734375 0.916015625 L 0.1630859375 0.08203125 M 0.29736328125 0.67138671875 L 0.23876953125 0.255859375 L 0.2333984375 0.255859375 L 0.17431640625 0.67138671875 L 0.29736328125 0.67138671875 M 0.54345703125 0.08203125 L 0.669921875 0.08203125 L 0.669921875 0.81640625 L 0.84228515625 0.81640625 L 0.84228515625 0.916015625 L 0.54345703125 0.916015625 L 0.54345703125 0.08203125 M 1.01416015625 0.08203125 L 1.15966796875 0.08203125 L 1.31396484375 0.916015625 L 1.18603515625 0.916015625 L 1.1630859375 0.7666015625 L 1.0107421875 0.7666015625 L 0.98876953125 0.916015625 L 0.8603515625 0.916015625 L 1.01416015625 0.08203125 M 1.1484375 0.67138671875 L 1.08984375 0.255859375 L 1.08447265625 0.255859375 L 1.025390625 0.67138671875 L 1.1484375 0.67138671875 M 1.39453125 0.08203125 L 1.52099609375 0.08203125 L 1.52099609375 0.916015625 L 1.39453125 0.916015625 L 1.39453125 0.08203125 M 1.66357421875 0.08203125 L 1.76611328125 0.08203125 L 1.96826171875 0.64013671875 L 1.97119140625 0.64013671875 Q 1.9697265625 0.62060546875 1.96728515625 0.5966796875 Q 1.96484375 0.57275390625 1.962890625 0.542236328125 Q 1.9609375 0.51171875 1.95947265625 0.47314453125 Q 1.9580078125 0.4345703125 1.9580078125 0.38623046875 L 1.9580078125 0.08203125 L 2.0712890625 0.08203125 L 2.0712890625 0.916015625 L 1.9677734375 0.916015625 L 1.7666015625 0.37255859375 L 1.7626953125 0.37255859375 Q 1.76416015625 0.39453125 1.7666015625 0.420166015625 Q 1.76904296875 0.44580078125 1.77099609375 0.48046875 Q 1.77294921875 0.51513671875 1.7744140625 0.561279296875 Q 1.77587890625 0.607421875 1.77587890625 0.6708984375 L 1.77587890625 0.916015625 L 1.66357421875 0.916015625 L 1.66357421875 0.08203125 M 2.2431640625 0 L 2.36474609375 0 L 2.3544921875 0.33984375 L 2.25537109375 0.33984375 L 2.2431640625 0" fill="#302c2d" fill-rule="nonzero"></path></g><g><path d=" M 0.8031251668568995 2.001402698863636 L 0.8029032208341722 1.8950905539772722 Q 0.8029032208341722 1.8205166903409087 0.7975765162887176 1.7534889914772722 Q 0.7969106782205359 1.743501420454545 0.8040129509478086 1.7406161221590906 Q 0.8080079793568995 1.7388405539772722 0.813334683902354 1.7397283380681814 Q 0.8226564168568995 1.7412819602272722 0.8359731782205359 1.7412819602272722 Q 0.8492899395841722 1.7412819602272722 0.8553934552091722 1.7411709872159087 Q 0.8614969708341722 1.741060014204545 0.8677114594705359 1.7408380681818176 Q 0.8832476810614449 1.740172230113636 0.8889073046409903 1.739506392045454 Q 0.8945669282205359 1.7388405539772722 0.8975631995273541 1.7397283380681814 Q 0.9005594708341722 1.7406161221590906 0.9027789310614449 1.7423916903409087 Q 0.9072178515159903 1.7463867187499995 0.9072178515159903 1.751380504261363 Q 0.9072178515159903 1.7563742897727268 0.9032228231068995 1.759703480113636 Q 0.8992277946978086 1.763032670454545 0.8922364949818995 1.762699751420454 Q 0.8852451952659903 1.762366832386363 0.876811246402354 1.761811967329545 Q 0.8683772975387176 1.7612571022727268 0.8586116725387176 1.7610351562499995 Q 0.8381926384478086 1.7603693181818176 0.8239880929932631 1.7612571022727268 L 0.8239880929932631 1.799653764204545 Q 0.8239880929932631 1.8222922585227268 0.8237661469705359 1.8458185369318176 Q 0.8235442009478086 1.908629261363636 0.8235442009478086 1.9381480823863633 Q 0.8539508060614449 1.9381480823863633 0.8712625958341722 1.936372514204545 Q 0.8896841157205359 1.9343749999999995 0.8896841157205359 1.9459161931818176 Q 0.8896841157205359 1.9570134943181814 0.8641603231068995 1.9572354403409087 Q 0.8577238884478086 1.957457386363636 0.8539508060614449 1.957457386363636 L 0.8361951242432631 1.9572354403409087 L 0.8235442009478086 1.9572354403409087 L 0.825541715152354 2.087073863636363 Q 0.825541715152354 2.092844460227272 0.8225454438455359 2.0967285156249997 Q 0.8195491725387176 2.100612571022727 0.8159980361750813 2.100612571022727 Q 0.8124468998114449 2.100612571022727 0.8102274395841722 2.1000577059659085 Q 0.8080079793568995 2.0995028409090906 0.806010465152354 2.0979492187499997 Q 0.8013495986750813 2.0939541903409085 0.8017934907205359 2.087073863636363 Q 0.8031251668568995 2.061550071022727 0.8031251668568995 2.001402698863636 M 0.9597080858909904 1.9976296164772722 Q 0.9614836540728086 2.048011363636363 0.9625933841864449 2.0850763494318176 Q 0.9628153302091722 2.092622514204545 0.9588203018000814 2.096284623579545 Q 0.9548252733909904 2.099946732954545 0.9502753799250814 2.099946732954545 Q 0.9457254864591722 2.099946732954545 0.9422853231068995 2.096506569602272 Q 0.9388451597546268 2.0930664062499997 0.9388451597546268 2.086186079545454 L 0.9388451597546268 1.919282670454545 Q 0.9388451597546268 1.8327237215909087 0.9346281853228086 1.763920454545454 Q 0.9339623472546268 1.754154829545454 0.9399548898682631 1.7503817471590906 Q 0.9423962961182631 1.7488281249999995 0.9450596483909904 1.7484952059659087 Q 0.9477230006637177 1.7481622869318176 0.9568227875955359 1.7454989346590906 Q 0.9796832279364449 1.7390624999999995 1.0022107492432633 1.7390624999999995 Q 1.0247382705500814 1.7390624999999995 1.039497681061445 1.744056285511363 Q 1.0542570915728087 1.7490500710227268 1.0646885546409903 1.7592595880681814 Q 1.0868831569137176 1.781010298295454 1.0868831569137176 1.823401988636363 Q 1.0868831569137176 1.8780007102272722 1.0438256285046268 1.9288263494318176 Q 1.0369453018000814 1.9370383522727268 1.0291771910046268 1.9450284090909087 Q 1.0509279012318995 2.0116122159090906 1.0802247762318995 2.0808593749999997 Q 1.085551480777354 2.092844460227272 1.074898071686445 2.098393110795454 Q 1.0722347194137176 2.0997247869318176 1.0686835830500814 2.0997247869318176 Q 1.0606935262318995 2.0997247869318176 1.0573643358909903 2.0906249999999997 Q 1.0502620631637176 2.069984019886363 1.0444914665728087 2.0510076349431814 Q 1.0387208699818995 2.0320312499999997 1.0331722194137176 2.0140536221590906 Q 1.0234065944137176 1.9816495028409087 1.014750699527354 1.9585671164772722 Q 0.9903366370273541 1.9800958806818176 0.9597080858909904 1.9976296164772722 M 0.9590422478228086 1.9765447443181814 Q 0.9941097194137177 1.9561257102272722 1.0247382705500814 1.9210582386363633 Q 1.0657982847546268 1.8733398437499995 1.0657982847546268 1.8253995028409087 Q 1.0657982847546268 1.7756835937499995 1.030952759186445 1.7612571022727268 Q 1.0118654012318995 1.753267045454545 0.9823465802091722 1.759037642045454 Q 0.9683639807773541 1.7617009943181814 0.9594861398682631 1.7661399147727268 Q 0.9566008415728086 1.832945667613636 0.9566008415728086 1.8782226562499995 Q 0.9566008415728086 1.9263849431818176 0.9567118145841722 1.9300470525568176 Q 0.9568227875955359 1.9337091619318176 0.9569337606068995 1.936705433238636 Q 0.9570447336182631 1.939701704545454 0.9572666796409904 1.9429199218749995 Q 0.9574886256637177 1.946138139204545 0.9578215446978086 1.9521306818181814 Q 0.9581544637318995 1.9581232244318176 0.9585983557773541 1.9676669034090906 Q 0.9588203018000814 1.9716619318181814 0.9590422478228086 1.9765447443181814 M 1.1617899395841722 1.978764204545454 L 1.1622338316296266 2.057555042613636 Q 1.1622338316296266 2.068208451704545 1.1622338316296266 2.075754616477272 Q 1.1624557776523539 2.0790838068181814 1.1624557776523539 2.0815252130681814 Q 1.2183861753796266 2.0815252130681814 1.2368076952659903 2.079749644886363 Q 1.2558950532205357 2.0777521306818176 1.2590022975387176 2.078639914772727 Q 1.2621095418568993 2.079527698863636 1.264329002084172 2.0815252130681814 Q 1.2687679225387176 2.085520241477272 1.2687679225387176 2.0902920809659085 Q 1.2687679225387176 2.095063920454545 1.2645509481068993 2.0985040838068176 Q 1.2603339736750812 2.1019442471590906 1.2527878089023539 2.101500355113636 Q 1.2163886611750812 2.0986150568181814 1.1870917861750812 2.100501598011363 Q 1.1577949111750812 2.102388139204545 1.154243774811445 2.102943004261363 Q 1.1506926384478084 2.1034978693181814 1.1479183131637176 2.102943004261363 Q 1.1451439878796266 2.102388139204545 1.1429245276523539 2.100612571022727 Q 1.1378197691296266 2.096839488636363 1.1382636611750812 2.089515269886363 Q 1.1415928515159903 2.0253728693181814 1.1415928515159903 1.9475807883522722 Q 1.1415928515159903 1.8697887073863633 1.1417038245273539 1.849702592329545 Q 1.1418147975387176 1.8296164772727268 1.1418147975387176 1.8129705255681814 Q 1.141370905493263 1.7772372159090906 1.1402611753796266 1.7624778053977268 Q 1.1391514452659903 1.747718394886363 1.140816040436445 1.7448330965909087 Q 1.1424806356068993 1.741947798295454 1.1449220418568993 1.7406161221590906 Q 1.1482512321978084 1.7390624999999995 1.1533559907205357 1.7399502840909087 Q 1.1626777236750812 1.7415039062499995 1.177991999243263 1.7415039062499995 Q 1.2075108202659903 1.7415039062499995 1.218275202368263 1.7402832031249995 Q 1.2290395844705357 1.7390624999999995 1.2321468287887176 1.7400612571022722 Q 1.2352540731068993 1.741060014204545 1.237251587311445 1.742835582386363 Q 1.2416905077659903 1.7463867187499995 1.2416905077659903 1.7514914772727268 Q 1.2416905077659903 1.756596235795454 1.2376954793568993 1.759925426136363 Q 1.2337004509478084 1.7632546164772722 1.226820124243263 1.7629216974431814 Q 1.2199397975387176 1.7625887784090906 1.212171686743263 1.7620339133522722 Q 1.2044035759478084 1.761479048295454 1.1955257350387176 1.7610351562499995 Q 1.1768822691296266 1.7603693181818176 1.1631216157205357 1.761479048295454 Q 1.1631216157205357 1.7807883522727268 1.1628996696978084 1.7998757102272722 Q 1.1626777236750812 1.822514204545454 1.1624557776523539 1.8458185369318176 Q 1.1617899395841722 1.9084073153409087 1.1617899395841722 1.9381480823863633 Q 1.1895331924250812 1.9381480823863633 1.2026280077659903 1.9368164062499995 Q 1.2168325532205357 1.9352627840909087 1.2204946625955357 1.9381480823863633 Q 1.2241567719705357 1.9410333806818176 1.2241567719705357 1.9459161931818176 Q 1.2241567719705357 1.9581232244318176 1.2012963316296266 1.9576793323863633 Q 1.1966354651523539 1.957457386363636 1.1928623827659903 1.957457386363636 L 1.1748847549250812 1.9572354403409087 L 1.1617899395841722 1.9572354403409087 L 1.1617899395841722 1.978764204545454 M 1.4772862108909903 1.7528231534090906 Q 1.4759545347546266 1.8633522727272722 1.4759545347546266 1.909184126420454 Q 1.4759545347546266 1.955015980113636 1.4760655077659903 1.9764337713068176 Q 1.4761764807773539 1.9978515624999995 1.4763984268000812 2.017160866477272 Q 1.4768423188455357 2.0579989346590906 1.4773971839023539 2.0729802911931814 Q 1.477952048959172 2.087961647727272 1.4766203728228084 2.090846946022727 Q 1.4752886966864447 2.0937322443181814 1.473069236459172 2.095729758522727 Q 1.4639694495273539 2.103941761363636 1.4537599324818993 2.0972833806818176 Q 1.4497649040728084 2.0946200284090906 1.4479893358909903 2.089293323863636 Q 1.4284580858909903 2.0320312499999997 1.4009367790728084 1.9648925781249995 Q 1.3734154722546266 1.8977539062499995 1.3625401171409903 1.8700106534090906 Q 1.342786921118263 1.8196289062499995 1.328138483618263 1.777681107954545 L 1.3310237819137174 2.0872958096590906 Q 1.3310237819137174 2.094176136363636 1.3274726455500812 2.097505326704545 Q 1.3239215091864447 2.100834517045454 1.3193716157205357 2.100834517045454 Q 1.3148217222546266 2.100834517045454 1.3109376668568993 2.097172407670454 Q 1.307053611459172 2.093510298295454 1.3072755574818993 2.086186079545454 Q 1.309495017709172 2.025150923295454 1.309495017709172 1.947025923295454 L 1.309495017709172 1.8154119318181814 Q 1.309495017709172 1.781010298295454 1.3090511256637174 1.7561523437499995 Q 1.3090511256637174 1.7479403409090906 1.3140449111750812 1.7436123934659087 Q 1.3190386966864447 1.7392844460227268 1.3245873472546266 1.7392844460227268 Q 1.3370163245273539 1.7392844460227268 1.3410113529364447 1.7510475852272722 Q 1.3450063813455357 1.7628107244318176 1.3523306000955357 1.7826748934659087 Q 1.3596548188455357 1.8025390624999995 1.3687546057773539 1.826842151988636 Q 1.377854392709172 1.8511452414772722 1.3882858557773539 1.8783336292613633 Q 1.3987173188455357 1.905522017045454 1.4091487819137174 1.9324884588068176 Q 1.4195802449818993 1.9594549005681814 1.4293458699818993 1.9847567471590906 Q 1.4391114949818993 2.0100585937499997 1.4471015518000812 2.030699573863636 Q 1.455091608618263 2.051340553977272 1.4606402591864447 2.065988991477272 Q 1.460862205209172 2.066654829545454 1.4610841512318993 2.0670987215909085 Q 1.4593085830500812 2.023597301136363 1.4581988529364447 1.9723277698863633 Q 1.4570891228228084 1.9099609374999995 1.456312311743263 1.8788884943181814 Q 1.4555355006637174 1.847816051136363 1.454758689584172 1.8159667968749995 Q 1.4539818785046266 1.784117542613636 1.4528721483909903 1.7528231534090906 Q 1.4528721483909903 1.7457208806818176 1.4567562037887174 1.742280717329545 Q 1.4606402591864447 1.7388405539772722 1.4653011256637174 1.7388405539772722 Q 1.4699619921409903 1.7388405539772722 1.4736241015159903 1.742280717329545 Q 1.4772862108909903 1.7457208806818176 1.4772862108909903 1.7528231534090906 M 1.6704902236750812 2.008948863636363 Q 1.6704902236750812 2.001624644886363 1.6741523330500812 1.9975186434659087 Q 1.6778144424250812 1.993412642045454 1.6825862819137174 1.993412642045454 Q 1.6873581214023539 1.993412642045454 1.6910202307773539 1.9968528053977268 Q 1.6946823401523539 2.0002929687499997 1.6942384481068993 2.007395241477272 Q 1.6920189878796266 2.0522283380681814 1.6700463316296266 2.079527698863636 Q 1.6489614594705357 2.105717329545454 1.6172231782205357 2.105717329545454 Q 1.557297752084172 2.105717329545454 1.5397640162887176 2.016051136363636 Q 1.5331056356068993 1.9829811789772722 1.5331056356068993 1.9380371093749995 Q 1.5331056356068993 1.8930930397727268 1.5386542861750812 1.857914595170454 Q 1.544202936743263 1.8227361505681814 1.5555221839023539 1.7967684659090906 Q 1.5797143003796266 1.7412819602272722 1.6243254509478084 1.7412819602272722 Q 1.658949030493263 1.7412819602272722 1.6755949821978084 1.7685813210227268 Q 1.693128717993263 1.7976562499999995 1.693128717993263 1.8635742187499995 Q 1.693128717993263 1.8708984374999995 1.6897995276523539 1.8745605468749995 Q 1.6864703373114447 1.8782226562499995 1.681809470834172 1.8782226562499995 Q 1.6715999537887174 1.8782226562499995 1.6715999537887174 1.8653497869318176 Q 1.6715999537887174 1.7832297585227268 1.6454103231068993 1.7674715909090906 Q 1.6360885901523539 1.7619229403409087 1.6236596128796266 1.7619229403409087 Q 1.6112306356068993 1.7619229403409087 1.6013540375955357 1.7689142400568176 Q 1.591477439584172 1.7759055397727268 1.5838203018000812 1.7882235440340906 Q 1.5761631640159903 1.800541548295454 1.5706145134478084 1.817298473011363 Q 1.5650658628796266 1.8340553977272722 1.5615147265159903 1.853364701704545 Q 1.5544124537887176 1.892427201704545 1.5544124537887176 1.9304909446022722 Q 1.5544124537887176 1.9685546874999995 1.5568538600387176 1.9915261008522722 Q 1.5592952662887176 2.014497514204545 1.563734186743263 2.0308105468749997 Q 1.5681731071978084 2.047123579545454 1.5742766228228084 2.057444069602272 Q 1.5803801384478084 2.0677645596590906 1.5877043571978084 2.073757102272727 Q 1.6001333344705357 2.0841885653409085 1.6194426384478084 2.0841885653409085 Q 1.6409714026523539 2.0841885653409085 1.6547320560614447 2.066654829545454 Q 1.6709341157205357 2.046457741477272 1.6704902236750812 2.008948863636363 M 1.8814499182773539 1.8538085937499995 L 1.8812279722546266 1.8187411221590906 Q 1.8812279722546266 1.810307173295454 1.881116999243263 1.8006525213068176 Q 1.8810060262318993 1.7909978693181814 1.8808950532205357 1.779789595170454 Q 1.880784080209172 1.7685813210227268 1.880562134186445 1.7580388849431814 Q 1.8803401881637176 1.747496448863636 1.8843352165728084 1.7441672585227268 Q 1.8883302449818993 1.7408380681818176 1.892769165436445 1.7408380681818176 Q 1.8972080858909903 1.7408380681818176 1.9008701952659903 1.7441672585227268 Q 1.9045323046409903 1.747496448863636 1.904310358618263 1.7545987215909087 Q 1.9007592222546266 1.877778764204545 1.9007592222546266 1.947691761363636 Q 1.9007592222546266 2.060218394886363 1.9023128444137176 2.0866299715909085 Q 1.902756736459172 2.0937322443181814 1.899094627084172 2.0972833806818176 Q 1.895432517709172 2.100834517045454 1.8911045702659903 2.100834517045454 Q 1.8867766228228084 2.100834517045454 1.8833364594705357 2.0973943536931814 Q 1.879896296118263 2.0939541903409085 1.8801182421409903 2.086851917613636 Q 1.8810060262318993 2.013831676136363 1.8814499182773539 1.9614524147727268 Q 1.8616967222546266 1.9596768465909087 1.8275170347546266 1.9596768465909087 Q 1.792005671118263 1.9596768465909087 1.774915827368263 1.961674360795454 Q 1.7751377733909903 2.0287020596590906 1.7764694495273539 2.085520241477272 Q 1.7766913955500812 2.092844460227272 1.7726963671409903 2.096617542613636 Q 1.7687013387318993 2.1003906249999997 1.7641514452659903 2.1003906249999997 Q 1.7596015518000812 2.1003906249999997 1.756050415436445 2.096950461647727 Q 1.7524992790728084 2.093510298295454 1.752943171118263 2.081303267045454 Q 1.7533870631637176 2.069096235795454 1.753830955209172 2.046235795454545 Q 1.7542748472546266 2.023375355113636 1.7547187393000812 1.9976296164772722 Q 1.7551626313455357 1.954350142045454 1.7551626313455357 1.9090731534090906 Q 1.7551626313455357 1.8637961647727268 1.755051658334172 1.8452636718749995 Q 1.7549406853228084 1.8267311789772722 1.7547187393000812 1.8114169034090906 Q 1.7540529012318993 1.787446732954545 1.7520553870273539 1.7559303977272722 Q 1.7516114949818993 1.7488281249999995 1.7556065233909903 1.7453879616477268 Q 1.7596015518000812 1.741947798295454 1.7644843643000812 1.741947798295454 Q 1.7693671768000812 1.741947798295454 1.773362205209172 1.7453879616477268 Q 1.777357233618263 1.7488281249999995 1.7769133415728084 1.7591486150568176 Q 1.7764694495273539 1.769469105113636 1.7760255574818993 1.784117542613636 Q 1.775581665436445 1.798765980113636 1.7753597194137176 1.816410688920454 Q 1.7751377733909903 1.8340553977272722 1.7751377733909903 1.8555841619318176 Q 1.774915827368263 1.8757812499999995 1.774915827368263 1.9405894886363633 Q 1.789564264868263 1.942808948863636 1.8279609268000812 1.942808948863636 Q 1.8648039665728084 1.942808948863636 1.8814499182773539 1.9405894886363633 Q 1.8814499182773539 1.9321555397727268 1.8814499182773539 1.9243874289772722 L 1.8814499182773539 1.8538085937499995 M 2.2232467932773536 1.7528231534090906 Q 2.2219151171409903 1.8633522727272722 2.2219151171409903 1.909184126420454 Q 2.2219151171409903 1.955015980113636 2.2220260901523536 1.9764337713068176 Q 2.2221370631637174 1.9978515624999995 2.2223590091864445 2.017160866477272 Q 2.222802901231899 2.0579989346590906 2.2233577662887174 2.0729802911931814 Q 2.2239126313455357 2.087961647727272 2.222580955209172 2.090846946022727 Q 2.2212492790728082 2.0937322443181814 2.2190298188455357 2.095729758522727 Q 2.2099300319137174 2.103941761363636 2.199720514868263 2.0972833806818176 Q 2.195725486459172 2.0946200284090906 2.1939499182773536 2.089293323863636 Q 2.1744186682773536 2.0320312499999997 2.146897361459172 1.9648925781249995 Q 2.1193760546409903 1.8977539062499995 2.1085006995273536 1.8700106534090906 Q 2.0887475035046266 1.8196289062499995 2.0740990660046266 1.777681107954545 L 2.076984364300081 2.0872958096590906 Q 2.076984364300081 2.094176136363636 2.0734332279364445 2.097505326704545 Q 2.0698820915728082 2.100834517045454 2.065332198106899 2.100834517045454 Q 2.0607823046409903 2.100834517045454 2.056898249243263 2.097172407670454 Q 2.0530141938455357 2.093510298295454 2.053236139868263 2.086186079545454 Q 2.0554556000955357 2.025150923295454 2.0554556000955357 1.947025923295454 L 2.0554556000955357 1.8154119318181814 Q 2.0554556000955357 1.781010298295454 2.055011708050081 1.7561523437499995 Q 2.055011708050081 1.7479403409090906 2.0600054935614445 1.7436123934659087 Q 2.0649992790728082 1.7392844460227268 2.0705479296409903 1.7392844460227268 Q 2.0829769069137174 1.7392844460227268 2.0869719353228082 1.7510475852272722 Q 2.090966963731899 1.7628107244318176 2.098291182481899 1.7826748934659087 Q 2.105615401231899 1.8025390624999995 2.1147151881637174 1.826842151988636 Q 2.1238149750955357 1.8511452414772722 2.1342464381637174 1.8783336292613633 Q 2.144677901231899 1.905522017045454 2.155109364300081 1.9324884588068176 Q 2.165540827368263 1.9594549005681814 2.175306452368263 1.9847567471590906 Q 2.185072077368263 2.0100585937499997 2.1930621341864445 2.030699573863636 Q 2.2010521910046266 2.051340553977272 2.2066008415728082 2.065988991477272 Q 2.2068227875955357 2.066654829545454 2.207044733618263 2.0670987215909085 Q 2.2052691654364445 2.023597301136363 2.2041594353228082 1.9723277698863633 Q 2.203049705209172 1.9099609374999995 2.2022728941296266 1.8788884943181814 Q 2.201496083050081 1.847816051136363 2.2007192719705357 1.8159667968749995 Q 2.1999424608909903 1.784117542613636 2.1988327307773536 1.7528231534090906 Q 2.1988327307773536 1.7457208806818176 2.202716786175081 1.742280717329545 Q 2.2066008415728082 1.7388405539772722 2.211261708050081 1.7388405539772722 Q 2.2159225745273536 1.7388405539772722 2.2195846839023536 1.742280717329545 Q 2.2232467932773536 1.7457208806818176 2.2232467932773536 1.7528231534090906 M 2.3150214736750807 1.978764204545454 L 2.3154653657205353 2.057555042613636 Q 2.3154653657205353 2.068208451704545 2.3154653657205353 2.075754616477272 Q 2.315687311743263 2.0790838068181814 2.315687311743263 2.0815252130681814 Q 2.3716177094705353 2.0815252130681814 2.390039229356899 2.079749644886363 Q 2.4091265873114445 2.0777521306818176 2.412233831629626 2.078639914772727 Q 2.4153410759478082 2.079527698863636 2.4175605361750807 2.0815252130681814 Q 2.421999456629626 2.085520241477272 2.421999456629626 2.0902920809659085 Q 2.421999456629626 2.095063920454545 2.4177824821978082 2.0985040838068176 Q 2.41356550776599 2.1019442471590906 2.406019342993263 2.101500355113636 Q 2.36962019526599 2.0986150568181814 2.34032332026599 2.100501598011363 Q 2.31102644526599 2.102388139204545 2.3074753089023536 2.102943004261363 Q 2.3039241725387174 2.1034978693181814 2.301149847254626 2.102943004261363 Q 2.2983755219705353 2.102388139204545 2.296156061743263 2.100612571022727 Q 2.2910513032205353 2.096839488636363 2.29149519526599 2.089515269886363 Q 2.294824385606899 2.0253728693181814 2.294824385606899 1.9475807883522722 Q 2.294824385606899 1.8697887073863633 2.294935358618263 1.849702592329545 Q 2.295046331629626 1.8296164772727268 2.295046331629626 1.8129705255681814 Q 2.2946024395841715 1.7772372159090906 2.2934927094705353 1.7624778053977268 Q 2.292382979356899 1.747718394886363 2.2940475745273536 1.7448330965909087 Q 2.2957121696978082 1.741947798295454 2.2981535759478082 1.7406161221590906 Q 2.3014827662887174 1.7390624999999995 2.3065875248114445 1.7399502840909087 Q 2.31590925776599 1.7415039062499995 2.3312235333341715 1.7415039062499995 Q 2.360742354356899 1.7415039062499995 2.3715067364591715 1.7402832031249995 Q 2.3822711185614445 1.7390624999999995 2.385378362879626 1.7400612571022722 Q 2.3884856071978082 1.741060014204545 2.3904831214023536 1.742835582386363 Q 2.394922041856899 1.7463867187499995 2.394922041856899 1.7514914772727268 Q 2.394922041856899 1.756596235795454 2.3909270134478082 1.759925426136363 Q 2.3869319850387174 1.7632546164772722 2.3800516583341715 1.7629216974431814 Q 2.373171331629626 1.7625887784090906 2.3654032208341715 1.7620339133522722 Q 2.3576351100387174 1.761479048295454 2.348757269129626 1.7610351562499995 Q 2.3301138032205353 1.7603693181818176 2.3163531498114445 1.761479048295454 Q 2.3163531498114445 1.7807883522727268 2.3161312037887174 1.7998757102272722 Q 2.31590925776599 1.822514204545454 2.315687311743263 1.8458185369318176 Q 2.3150214736750807 1.9084073153409087 2.3150214736750807 1.9381480823863633 Q 2.34276472651599 1.9381480823863633 2.355859541856899 1.9368164062499995 Q 2.3700640873114445 1.9352627840909087 2.3737261966864445 1.9381480823863633 Q 2.3773883060614445 1.9410333806818176 2.3773883060614445 1.9459161931818176 Q 2.3773883060614445 1.9581232244318176 2.3545278657205353 1.9576793323863633 Q 2.349866999243263 1.957457386363636 2.346093916856899 1.957457386363636 L 2.32811628901599 1.9572354403409087 L 2.3150214736750807 1.9572354403409087 L 2.3150214736750807 1.978764204545454 M 2.4455257350387174 1.796546519886363 Q 2.4405319495273536 1.772798295454545 2.4378685972546266 1.7603693181818176 Q 2.435205244981899 1.7479403409090906 2.439533192425081 1.7436123934659087 Q 2.443861139868263 1.7392844460227268 2.449631736459172 1.7392844460227268 Q 2.4607290375955357 1.7392844460227268 2.4635033628796266 1.7579279119318176 Q 2.4662776881637174 1.7765713778409087 2.4702727165728082 1.7988769531249995 Q 2.474267744981899 1.8211825284090906 2.4788176384478082 1.8455965909090906 Q 2.4833675319137174 1.8700106534090906 2.4882503444137174 1.895201526988636 Q 2.4931331569137174 1.9203924005681814 2.4979049964023536 1.9444735440340906 Q 2.50267683589099 1.9685546874999995 2.507337702368263 1.9903053977272722 Q 2.5119985688455357 2.012056107954545 2.5159935972546266 2.0295898437499997 Q 2.5208764097546266 2.051784446022727 2.5239836540728082 2.063547585227272 Q 2.530198142709172 2.038245738636363 2.540851551800081 1.9969637784090906 Q 2.5543902591864445 1.9448064630681814 2.5620473969705357 1.9146218039772722 Q 2.5697045347546266 1.8844371448863633 2.5763629154364445 1.8564719460227268 Q 2.59056746089099 1.7961026278409087 2.59545027339099 1.7625887784090906 Q 2.5974477875955357 1.745942826704545 2.609876764868263 1.7463867187499995 Q 2.6187546057773536 1.746830610795454 2.6211960120273536 1.7583718039772722 Q 2.6322933131637174 1.808531605113636 2.6438345063455353 1.8666814630681814 Q 2.6553756995273536 1.9248313210227268 2.66014753901599 1.948579545454545 Q 2.6649193785046266 1.9723277698863633 2.6692473259478082 1.9935236150568176 Q 2.67357527339099 2.014719460227272 2.6771264097546266 2.031809303977272 Q 2.681787276231899 2.053781960227272 2.6851164665728082 2.065767045454545 Q 2.688889548959172 2.0500088778409085 2.6935504154364445 2.0304776278409085 Q 2.6997649040728082 2.0034002130681814 2.7066452307773536 1.9732155539772722 Q 2.713525557481899 1.9430308948863633 2.720627830209172 1.9115145596590906 Q 2.7277301029364445 1.8799982244318176 2.7339445915728082 1.8507013494318176 Q 2.747483298959172 1.786780894886363 2.7521441654364445 1.7543767755681814 Q 2.7545855716864445 1.7375088778409087 2.7659048188455353 1.7383966619318176 Q 2.7756704438455353 1.7388405539772722 2.7756704438455353 1.7503817471590906 Q 2.7756704438455353 1.754820667613636 2.772785145550081 1.767027698863636 Q 2.7698998472546266 1.779234730113636 2.7644621696978082 1.8039817116477268 Q 2.75902449214099 1.8287286931818176 2.753253895550081 1.8548073508522722 Q 2.747483298959172 1.8808860085227268 2.7414907563455353 1.907408558238636 Q 2.735498213731899 1.933931107954545 2.7298385901523536 1.9587890624999995 Q 2.7241789665728082 1.983647017045454 2.719074208050081 2.0058416193181814 Q 2.7139694495273536 2.0280362215909085 2.7097524750955353 2.045348011363636 Q 2.70043074214099 2.083744673295454 2.69798933589099 2.089293323863636 Q 2.69310652339099 2.1010564630681814 2.684894520550081 2.1010564630681814 Q 2.675128895550081 2.1010564630681814 2.671799705209172 2.089293323863636 Q 2.6544879154364445 2.028258167613636 2.642169911175081 1.9671120383522722 Q 2.6298519069137174 1.9059659090909087 2.62474714839099 1.8799982244318176 Q 2.619642389868263 1.8546963778409087 2.609210926800081 1.798100142045454 Q 2.5934527591864445 1.8697887073863633 2.5821335120273536 1.9146218039772722 Q 2.5699264807773536 1.9627840909090906 2.5641558841864445 1.9865323153409087 Q 2.549729392709172 2.045569957386363 2.539963767709172 2.089293323863636 Q 2.5388540375955357 2.0948419744318176 2.53441511714099 2.0979492187499997 Q 2.5299761966864445 2.1010564630681814 2.525315330209172 2.1010564630681814 Q 2.5142180290728082 2.1010564630681814 2.510888838731899 2.089293323863636 Q 2.490247858618263 2.011168323863636 2.470383689584172 1.9157315340909087 Q 2.450519520550081 1.8202947443181814 2.4455257350387174 1.796546519886363 M 3.061536921118263 1.824955610795454 Q 3.0686391938455353 1.8520330255681814 3.0686391938455353 1.884770063920454 Q 3.0686391938455353 1.9175071022727268 3.0630905432773536 1.9455832741477268 Q 3.057541892709172 1.9736594460227268 3.0475543216864445 1.9975186434659087 Q 3.0375667506637174 2.0213778409090906 3.023695124243263 2.0405761718749997 Q 3.0098234978228082 2.0597745028409085 2.9929556000955353 2.073313210227272 Q 2.9581100745273536 2.1012784090909085 2.9172720063455353 2.1012784090909085 Q 2.9108355716864445 2.1012784090909085 2.908949030493263 2.097172407670454 Q 2.9070624893000807 2.0930664062499997 2.9070624893000807 2.0872958096590906 L 2.9070624893000807 2.068208451704545 Q 2.9070624893000807 2.054447798295454 2.9069515162887174 2.0348055752840906 Q 2.9068405432773536 2.015163352272727 2.90672957026599 1.9910822088068176 Q 2.9066185972546266 1.9670010653409087 2.9062856782205353 1.9411443536931814 Q 2.9059527591864445 1.915287642045454 2.9056198401523536 1.8889870383522722 Q 2.905286921118263 1.8626864346590906 2.9048430290728082 1.838716264204545 Q 2.9035113529364445 1.789000355113636 2.9017357847546266 1.7603693181818176 Q 2.90062605464099 1.745276988636363 2.915052546118263 1.743501420454545 Q 2.9363593643000807 1.740394176136363 2.950120017709172 1.740394176136363 Q 3.0393423188455353 1.740394176136363 3.061536921118263 1.824955610795454 M 2.9292570915728082 2.080415482954545 Q 2.95433699214099 2.079527698863636 2.9791949466864445 2.0588867187499997 Q 3.0253597194137174 2.0204900568181814 3.0408959410046266 1.9443625710227268 Q 3.0462226455500807 1.9181729403409087 3.0462226455500807 1.8849920099431814 Q 3.0462226455500807 1.851811079545454 3.0381216157205353 1.8272860440340906 Q 3.03002058589099 1.8027610085227268 3.0171477165728082 1.7881125710227268 Q 2.9929556000955353 1.760591264204545 2.9547808841864445 1.760591264204545 Q 2.938134932481899 1.760591264204545 2.9277034694137174 1.7641424005681814 Q 2.925927901231899 1.7870028409090906 2.925927901231899 1.828284801136363 Q 2.925927901231899 1.877778764204545 2.9261498472546266 1.9039683948863633 Q 2.9263717932773536 1.9301580255681814 2.9267047123114445 1.9552379261363633 Q 2.9270376313455353 1.980317826704545 2.9273705503796266 2.0032892400568176 Q 2.9277034694137174 2.0262606534090906 2.928147361459172 2.044460227272727 Q 2.9288131995273536 2.067320667613636 2.9292570915728082 2.080415482954545 M 3.1448776526523536 1.978764204545454 L 3.1453215446978082 2.057555042613636 Q 3.1453215446978082 2.068208451704545 3.1453215446978082 2.075754616477272 Q 3.1455434907205357 2.0790838068181814 3.1455434907205357 2.0815252130681814 Q 3.2014738884478082 2.0815252130681814 3.219895408334172 2.079749644886363 Q 3.2389827662887174 2.0777521306818176 3.242090010606899 2.078639914772727 Q 3.245197254925081 2.079527698863636 3.2474167151523536 2.0815252130681814 Q 3.251855635606899 2.085520241477272 3.251855635606899 2.0902920809659085 Q 3.251855635606899 2.095063920454545 3.247638661175081 2.0985040838068176 Q 3.243421686743263 2.1019442471590906 3.2358755219705357 2.101500355113636 Q 3.199476374243263 2.0986150568181814 3.170179499243263 2.100501598011363 Q 3.140882624243263 2.102388139204545 3.1373314878796266 2.102943004261363 Q 3.1337803515159903 2.1034978693181814 3.131006026231899 2.102943004261363 Q 3.1282317009478082 2.102388139204545 3.1260122407205357 2.100612571022727 Q 3.1209074821978082 2.096839488636363 3.121351374243263 2.089515269886363 Q 3.124680564584172 2.0253728693181814 3.124680564584172 1.9475807883522722 Q 3.124680564584172 1.8697887073863633 3.1247915375955357 1.849702592329545 Q 3.124902510606899 1.8296164772727268 3.124902510606899 1.8129705255681814 Q 3.1244586185614445 1.7772372159090906 3.1233488884478082 1.7624778053977268 Q 3.122239158334172 1.747718394886363 3.1239037535046266 1.7448330965909087 Q 3.125568348675081 1.741947798295454 3.128009754925081 1.7406161221590906 Q 3.1313389452659903 1.7390624999999995 3.1364437037887174 1.7399502840909087 Q 3.145765436743263 1.7415039062499995 3.1610797123114445 1.7415039062499995 Q 3.190598533334172 1.7415039062499995 3.2013629154364445 1.7402832031249995 Q 3.2121272975387174 1.7390624999999995 3.215234541856899 1.7400612571022722 Q 3.218341786175081 1.741060014204545 3.2203393003796266 1.742835582386363 Q 3.224778220834172 1.7463867187499995 3.224778220834172 1.7514914772727268 Q 3.224778220834172 1.756596235795454 3.220783192425081 1.759925426136363 Q 3.2167881640159903 1.7632546164772722 3.2099078373114445 1.7629216974431814 Q 3.203027510606899 1.7625887784090906 3.1952593998114445 1.7620339133522722 Q 3.1874912890159903 1.761479048295454 3.178613448106899 1.7610351562499995 Q 3.1599699821978082 1.7603693181818176 3.1462093287887174 1.761479048295454 Q 3.1462093287887174 1.7807883522727268 3.1459873827659903 1.7998757102272722 Q 3.145765436743263 1.822514204545454 3.1455434907205357 1.8458185369318176 Q 3.1448776526523536 1.9084073153409087 3.1448776526523536 1.9381480823863633 Q 3.172620905493263 1.9381480823863633 3.185715720834172 1.9368164062499995 Q 3.1999202662887174 1.9352627840909087 3.2035823756637174 1.9381480823863633 Q 3.2072444850387174 1.9410333806818176 3.2072444850387174 1.9459161931818176 Q 3.2072444850387174 1.9581232244318176 3.1843840446978082 1.9576793323863633 Q 3.1797231782205357 1.957457386363636 3.175950095834172 1.957457386363636 L 3.157972467993263 1.9572354403409087 L 3.1448776526523536 1.9572354403409087 L 3.1448776526523536 1.978764204545454 M 3.449387595834172 1.7442782315340906 Q 3.4534935972546266 1.7488281249999995 3.450941217993263 1.757484019886363 Q 3.4483888387318995 1.7661399147727268 3.4449486753796266 1.781010298295454 Q 3.441508512027354 1.7958806818181814 3.4372915375955357 1.814857066761363 Q 3.4330745631637174 1.833833451704545 3.4281917506637174 1.856139026988636 Q 3.4233089381637174 1.8784446022727268 3.4180932066296266 1.9024147727272722 Q 3.4128774750955357 1.9263849431818176 3.4074397975387174 1.951353870738636 Q 3.4020021199818995 1.976322798295454 3.3964534694137174 2.000514914772727 Q 3.3840244921409903 2.0546697443181814 3.374924705209172 2.089515269886363 Q 3.3720394069137174 2.1012784090909085 3.3607201597546266 2.1012784090909085 Q 3.348735074527354 2.1012784090909085 3.3449619921409903 2.089515269886363 Q 3.3418547478228087 2.079527698863636 3.3317562037887174 2.031254438920454 Q 3.3216576597546266 1.9829811789772722 3.3162199821978087 1.958012251420454 Q 3.3107823046409903 1.933043323863636 3.3049007350387174 1.9065207741477268 Q 3.299019165436445 1.8799982244318176 3.292804676800081 1.8538085937499995 Q 3.2799318074818995 1.7998757102272722 3.2731624537887174 1.777348188920454 Q 3.2663931000955357 1.754820667613636 3.2663931000955357 1.7500488281249995 Q 3.2663931000955357 1.745276988636363 3.269611317425081 1.7421697443181814 Q 3.2728295347546266 1.7390624999999995 3.2778233202659903 1.7388405539772722 Q 3.282817105777354 1.738618607954545 3.2878108912887174 1.7421697443181814 Q 3.292804676800081 1.7457208806818176 3.2949131640159903 1.757262073863636 Q 3.2970216512318995 1.768803267045454 3.3006837606068995 1.7876686789772722 Q 3.3043458699818995 1.8065340909090906 3.308784790436445 1.8283957741477268 Q 3.3132237108909903 1.850257457386363 3.318217496402354 1.874116654829545 Q 3.3232112819137174 1.8979758522727268 3.328316040436445 1.9218350497159087 Q 3.333420798959172 1.9456942471590906 3.3385255574818995 1.9686656605113633 Q 3.3436303160046266 1.991637073863636 3.3485131285046266 2.0118341619318176 Q 3.356059293277354 2.044460227272727 3.361829889868263 2.065101207386363 Q 3.3671565944137174 2.050230823863636 3.3729271910046266 2.024263139204545 Q 3.3811391938455357 1.986754261363636 3.384468384186445 1.970552201704545 Q 3.3884634125955357 1.9516867897727268 3.394234009186445 1.9202814275568176 Q 3.400004605777354 1.8888760653409087 3.404221580209172 1.8674582741477268 Q 3.4084385546409903 1.846040482954545 3.412211637027354 1.8272860440340906 Q 3.4159847194137174 1.808531605113636 3.4194248827659903 1.7917746803977268 Q 3.422865046118263 1.7750177556818176 3.424751587311445 1.7629216974431814 Q 3.4266381285046266 1.750825639204545 3.429856345834172 1.745276988636363 Q 3.4330745631637174 1.7397283380681814 3.4391780787887174 1.7397283380681814 Q 3.4452815944137174 1.7397283380681814 3.449387595834172 1.7442782315340906 M 3.4924451242432633 1.9987393465909087 Q 3.500213235038718 1.9987393465909087 3.5022107492432633 2.004731889204545 Q 3.5042082634478087 2.0107244318181814 3.5042082634478087 2.024485085227272 Q 3.5042082634478087 2.038245738636363 3.5079813458341724 2.050230823863636 Q 3.5117544282205357 2.0622159090909085 3.518412808902354 2.0704279119318176 Q 3.531951516288718 2.086851917613636 3.5559216867432633 2.086851917613636 Q 3.5798918571978087 2.086851917613636 3.594096402652354 2.0692072088068176 Q 3.6083009481068995 2.0515624999999997 3.6083009481068995 2.018492542613636 Q 3.6083009481068995 1.9743252840909087 3.5707920702659903 1.9399236505681814 Q 3.560138661175081 1.9301580255681814 3.548930387027354 1.9206143465909087 Q 3.537722112879627 1.911070667613636 3.527068703788718 1.9008611505681814 Q 3.5164152946978087 1.8906516335227268 3.5079813458341724 1.8782226562499995 Q 3.4895598259478087 1.850923295454545 3.4895598259478087 1.816077769886363 Q 3.4895598259478087 1.7803444602272722 3.5106446981068995 1.7583718039772722 Q 3.5315076242432633 1.7366210937499995 3.5630239594705357 1.7366210937499995 Q 3.5901013742432633 1.7366210937499995 3.6074131640159903 1.754820667613636 Q 3.6267224679932633 1.7756835937499995 3.6251688458341724 1.8125266335227268 Q 3.624946899811445 1.814302201704545 3.6250578728228087 1.8162997159090906 Q 3.6251688458341724 1.818297230113636 3.624613980777354 1.8238458806818176 Q 3.6240591157205357 1.8293945312499995 3.619953114300081 1.8337224786931814 Q 3.615847112879627 1.838050426136363 3.6110752733909903 1.838050426136363 Q 3.606303433902354 1.838050426136363 3.602974243561445 1.8337224786931814 Q 3.5996450532205357 1.8293945312499995 3.6007547833341724 1.8222922585227268 Q 3.603640081629627 1.806090198863636 3.603640081629627 1.797767223011363 Q 3.603640081629627 1.7894442471590906 3.6006438103228087 1.781898082386363 Q 3.5976475390159903 1.774351917613636 3.5920988884478087 1.7685813210227268 Q 3.5801138032205357 1.7563742897727268 3.5610264452659903 1.7563742897727268 Q 3.5399415731068995 1.7563742897727268 3.5266248117432633 1.7708007812499995 Q 3.5119763742432633 1.786780894886363 3.5119763742432633 1.8100852272727268 Q 3.5119763742432633 1.8333895596590906 3.5170811327659903 1.8477050781249995 Q 3.522185891288718 1.8620205965909087 3.5305088671409903 1.8735617897727268 Q 3.5388318429932633 1.885102982954545 3.5494852520841724 1.8946466619318176 Q 3.560138661175081 1.9041903409090906 3.571124989300081 1.913512073863636 Q 3.582111317425081 1.9228338068181814 3.5927647265159903 1.932710404829545 Q 3.6034181356068995 1.9425870028409087 3.6118520844705357 1.9545720880681814 Q 3.6302736043568995 1.9816495028409087 3.6302736043568995 2.016938920454545 Q 3.6302736043568995 2.0582208806818176 3.608966786175081 2.082856889204545 Q 3.5878819140159903 2.107270951704545 3.552592496402354 2.107270951704545 Q 3.519744485038718 2.107270951704545 3.499103504925081 2.081969105113636 Q 3.479572254925081 2.0582208806818176 3.479572254925081 2.028480113636363 Q 3.479572254925081 1.9987393465909087 3.4924451242432633 1.9987393465909087" fill="#c91e25" fill-rule="nonzero"></path></g><g clip-path="url(#SvgjsClipPath1003)"><g clip-path="url(#c5327e9aa-80fd-421a-8554-15d55f271299d77d4b9e-4f14-4c37-9527-75f2bf77e220)"><path d=" M 4.331097425726212 1.074397259731152 L 3.3295516685453785 1.074397259731152 L 3.330231044703505 -0.31864195384212146 L 4.049478336548835 -0.31864195384212146 L 4.340125667272637 -0.0242011123162979 C 4.431806105351299 0.06392929080891924 4.4154303910195924 0.139575666149845 4.4154303910195924 0.139575666149845 L 4.4148727527857545 0.9771679285228262 C 4.4148727527857545 0.9771679285228262 4.415010198829306 0.9439923806393115 4.415010198829306 0.9785580970776041 C 4.415010198829306 1.0288358598087401 4.425888071418953 1.074397259731152 4.331097425726212 1.074397259731152" fill="#c1c0c1" transform="matrix(1,0,0,1,0,0)" fill-rule="nonzero" opacity="0.7"></path></g><g clip-path="url(#c5327e9aa-80fd-421a-8554-15d55f271299d77d4b9e-4f14-4c37-9527-75f2bf77e220)"><path d=" M 4.331097425726212 1.074397259731152 L 3.3295516685453785 1.074397259731152 L 3.330231044703505 -0.31864195384212146 L 4.049478336548835 -0.31864195384212146 L 4.340125667272637 -0.0242011123162979 C 4.431806105351299 0.06392929080891924 4.4154303910195924 0.139575666149845 4.4154303910195924 0.139575666149845 L 4.4148727527857545 0.9771679285228262 C 4.4148727527857545 0.9771679285228262 4.415010198829306 0.9439923806393115 4.415010198829306 0.9785580970776041 C 4.415010198829306 1.0288358598087401 4.425888071418953 1.074397259731152 4.331097425726212 1.074397259731152 Z" fill="none" transform="matrix(1,0,0,1,0,0)" fill-rule="nonzero" opacity="0.7" stroke-dasharray="none" stroke-miterlimit="4" stroke-linejoin="miter" stroke-linecap="butt" stroke-width="0.003927029815756936" stroke="#c1c0c1"></path></g><g clip-path="url(#e5327e9aa-80fd-421a-8554-15d55f271299d77d4b9e-4f14-4c37-9527-75f2bf77e220)"><path d=" M 2.8396429179402536 1.1299804397433757 L 2.7878296865511567 1.2125305335004022 C 2.7878296865511567 1.2125305335004022 2.7758875888814396 1.2363715315118626 2.8276536959127476 1.234537608587904 C 2.8794198029440556 1.2327036856639455 4.109868201055544 1.2346357843332982 4.109868201055544 1.2346357843332982 C 4.109868201055544 1.2346357843332982 4.127787238104844 1.2363715315118626 4.119823221638489 1.208862687652485 C 4.111859205172133 1.1813420627036604 4.093944095152651 1.1299804397433757 4.093944095152651 1.1299804397433757 Z" fill="#c1c0c1" transform="matrix(1,0,0,1,0,0)" fill-rule="nonzero" opacity="0.7"></path></g><g clip-path="url(#e5327e9aa-80fd-421a-8554-15d55f271299d77d4b9e-4f14-4c37-9527-75f2bf77e220)"><path d=" M 2.8396429179402536 1.1299804397433757 L 2.7878296865511567 1.2125305335004022 C 2.7878296865511567 1.2125305335004022 2.7758875888814396 1.2363715315118626 2.8276536959127476 1.234537608587904 C 2.8794198029440556 1.2327036856639455 4.109868201055544 1.2346357843332982 4.109868201055544 1.2346357843332982 C 4.109868201055544 1.2346357843332982 4.127787238104844 1.2363715315118626 4.119823221638489 1.208862687652485 C 4.111859205172133 1.1813420627036604 4.093944095152651 1.1299804397433757 4.093944095152651 1.1299804397433757 Z" fill="none" transform="matrix(1,0,0,1,0,0)" fill-rule="nonzero" opacity="0.7" stroke-dasharray="none" stroke-miterlimit="4" stroke-linejoin="miter" stroke-linecap="butt" stroke-width="0.003927029815756936" stroke="#c1c0c1"></path></g><g clip-path="url(#d5327e9aa-80fd-421a-8554-15d55f271299d77d4b9e-4f14-4c37-9527-75f2bf77e220)"><path d=" M 2.8617560228327807 1.163745042099254 L 2.845081854235077 1.163745042099254 L 2.845081854235077 1.15485424659638 L 2.8617560228327807 1.15485424659638 Z M 2.8709688347805464 1.1513199197621988 L 2.8546363177768135 1.1513199197621988 L 2.8546363177768135 1.1446871664033855 L 2.8709688347805464 1.1446871664033855 Z M 2.9486690467151133 1.163745042099254 L 2.9319948781174094 1.163745042099254 L 2.9319948781174094 1.15485424659638 L 2.9486690467151133 1.15485424659638 Z M 2.957881858662879 1.1513199197621988 L 2.941549341659146 1.1513199197621988 L 2.941549341659146 1.1446871664033855 L 2.957881858662879 1.1446871664033855 Z M 3.0362457386363086 1.163745042099254 L 3.0195715700386048 1.163745042099254 L 3.0195715700386048 1.15485424659638 L 3.0362457386363086 1.15485424659638 Z M 3.0454585505840748 1.1513199197621988 L 3.0291260335803414 1.1513199197621988 L 3.0291260335803414 1.1446871664033855 L 3.0454585505840748 1.1446871664033855 Z M 3.126453540534061 1.163745042099254 L 3.1097793719363573 1.163745042099254 L 3.1097793719363573 1.15485424659638 L 3.126453540534061 1.15485424659638 Z M 3.1356663524818273 1.1513199197621988 L 3.119333835478094 1.1513199197621988 L 3.119333835478094 1.1446871664033855 L 3.1356663524818273 1.1446871664033855 Z M 3.213366564416394 1.163745042099254 L 3.19669239581869 1.163745042099254 L 3.19669239581869 1.15485424659638 L 3.213366564416394 1.15485424659638 Z M 3.22257937636416 1.1513199197621988 L 3.2062468593604265 1.1513199197621988 L 3.2062468593604265 1.1446871664033855 L 3.22257937636416 1.1446871664033855 Z M 3.301591216257189 1.163745042099254 L 3.2849170476594853 1.163745042099254 L 3.2849170476594853 1.15485424659638 L 3.301591216257189 1.15485424659638 Z M 3.310804028204955 1.1513199197621988 L 3.294471511201222 1.1513199197621988 L 3.294471511201222 1.1446871664033855 L 3.310804028204955 1.1446871664033855 Z M 3.3911353501160786 1.163745042099254 L 3.3744611815183747 1.163745042099254 L 3.3744611815183747 1.15485424659638 L 3.3911353501160786 1.15485424659638 Z M 3.4003481620638447 1.1513199197621988 L 3.3840156450601118 1.1513199197621988 L 3.3840156450601118 1.1446871664033855 L 3.4003481620638447 1.1446871664033855 Z M 3.467516080032551 1.163745042099254 L 3.450841911434847 1.163745042099254 L 3.450841911434847 1.15485424659638 L 3.467516080032551 1.15485424659638 Z M 3.4905559639615973 1.1513199197621988 L 3.474223446957864 1.1513199197621988 L 3.474223446957864 1.1446871664033855 L 3.4905559639615973 1.1446871664033855 Z M 3.558383622939351 1.163745042099254 L 3.541709454341647 1.163745042099254 L 3.541709454341647 1.15485424659638 L 3.558383622939351 1.15485424659638 Z M 3.581419579838581 1.1513199197621988 L 3.5650870628348486 1.1513199197621988 L 3.5650870628348486 1.1446871664033855 L 3.581419579838581 1.1446871664033855 Z M 3.6426655368451266 1.163745042099254 L 3.6259913682474227 1.163745042099254 L 3.6259913682474227 1.15485424659638 L 3.6426655368451266 1.15485424659638 Z M 3.665705420774172 1.1513199197621988 L 3.6493729037704394 1.1513199197621988 L 3.6493729037704394 1.1446871664033855 L 3.665705420774172 1.1446871664033855 Z M 3.730898042745553 1.163745042099254 L 3.7142238741478493 1.163745042099254 L 3.7142238741478493 1.15485424659638 L 3.730898042745553 1.15485424659638 Z M 3.753937926674599 1.1513199197621988 L 3.7376054096708664 1.1513199197621988 L 3.7376054096708664 1.1446871664033855 L 3.753937926674599 1.1446871664033855 Z M 3.7726934210746546 1.1688305457106591 L 3.756360904070921 1.1688305457106591 L 3.756360904070921 1.1621977923518454 L 3.7726934210746546 1.1621977923518454 Z M 3.7963969730425635 1.1835137101917743 L 3.78006445603883 1.1835137101917743 L 3.78006445603883 1.176880956832961 L 3.7963969730425635 1.176880956832961 Z M 3.8619155384886517 1.1688305457106591 L 3.8455830214849187 1.1688305457106591 L 3.8455830214849187 1.1621977923518454 L 3.8619155384886517 1.1621977923518454 Z M 3.8856190904565606 1.1835137101917743 L 3.8692865734528277 1.1835137101917743 L 3.8692865734528277 1.176880956832961 L 3.8856190904565606 1.176880956832961 Z M 3.944877970376333 1.1739160493220644 L 3.9285454533726 1.1739160493220644 L 3.9285454533726 1.1672832959632506 L 3.944877970376333 1.1672832959632506 Z M 3.6844609151742276 1.1688305457106591 L 3.668128398170494 1.1688305457106591 L 3.668128398170494 1.1621977923518454 L 3.6844609151742276 1.1621977923518454 Z M 3.7081644671421365 1.1835137101917743 L 3.691831950138403 1.1835137101917743 L 3.691831950138403 1.176880956832961 L 3.7081644671421365 1.176880956832961 Z M 3.6001790012684523 1.1688305457106591 L 3.5838464842647193 1.1688305457106591 L 3.5838464842647193 1.1621977923518454 L 3.6001790012684523 1.1621977923518454 Z M 3.6238825532363608 1.1835137101917743 L 3.6075500362326283 1.1835137101917743 L 3.6075500362326283 1.176880956832961 L 3.6238825532363608 1.176880956832961 Z M 3.509315385391468 1.1688305457106591 L 3.492982868387735 1.1688305457106591 L 3.492982868387735 1.1621977923518454 L 3.509315385391468 1.1621977923518454 Z M 3.533018937359377 1.1835137101917743 L 3.516686420355644 1.1835137101917743 L 3.516686420355644 1.176880956832961 L 3.533018937359377 1.176880956832961 Z M 3.4191075834937155 1.1688305457106591 L 3.4027750664899825 1.1688305457106591 L 3.4027750664899825 1.1621977923518454 L 3.4191075834937155 1.1621977923518454 Z M 3.4428111354616244 1.1835137101917743 L 3.4264786184578915 1.1835137101917743 L 3.4264786184578915 1.176880956832961 L 3.4428111354616244 1.176880956832961 Z M 3.334169855608709 1.1688305457106591 L 3.3178373386049755 1.1688305457106591 L 3.3178373386049755 1.1621977923518454 L 3.334169855608709 1.1621977923518454 Z M 3.3578734075766175 1.1835137101917743 L 3.3415408905728845 1.1835137101917743 L 3.3415408905728845 1.176880956832961 L 3.3578734075766175 1.176880956832961 Z M 3.249232127723702 1.1688305457106591 L 3.232899610719969 1.1688305457106591 L 3.232899610719969 1.1621977923518454 L 3.249232127723702 1.1621977923518454 Z M 3.272935679691611 1.1835137101917743 L 3.2566031626878775 1.1835137101917743 L 3.2566031626878775 1.176880956832961 L 3.272935679691611 1.176880956832961 Z M 3.16561388185679 1.1688305457106591 L 3.1492813648530564 1.1688305457106591 L 3.1492813648530564 1.1621977923518454 L 3.1656138818567894 1.1621977923518454 Z M 3.1893174338246983 1.1835137101917743 L 3.1729849168209654 1.1835137101917743 L 3.1729849168209654 1.176880956832961 L 3.1893174338246983 1.176880956832961 Z M 3.0819956359898772 1.1688305457106591 L 3.0656631189861443 1.1688305457106591 L 3.0656631189861443 1.1621977923518454 L 3.0819956359898772 1.1621977923518454 Z M 3.1056991879577858 1.1835137101917743 L 3.089366670954053 1.1835137101917743 L 3.089366670954053 1.176880956832961 L 3.1056991879577858 1.176880956832961 Z M 2.990476206133662 1.1688305457106591 L 2.9741436891299284 1.1688305457106591 L 2.9741436891299284 1.1621977923518454 L 2.990476206133662 1.1621977923518454 Z M 3.0141797581015703 1.1835137101917743 L 2.9978472410978374 1.1835137101917743 L 2.9978472410978374 1.176880956832961 L 3.0141797581015703 1.176880956832961 Z M 2.8989567762774464 1.1688305457106591 L 2.8826242592737135 1.1688305457106591 L 2.8826242592737135 1.1621977923518454 L 2.8989567762774464 1.1621977923518454 Z M 2.9226603282453554 1.1835137101917743 L 2.906327811241622 1.1835137101917743 L 2.906327811241622 1.176880956832961 L 2.9226603282453554 1.176880956832961 Z M 2.964463560634088 1.1962255057053799 L 2.9481310436303545 1.1962255057053799 L 2.9481310436303545 1.1895927523465661 L 2.964463560634088 1.1895927523465661 Z M 3.04989609427588 1.1962255057053799 L 3.0335635772721465 1.1962255057053799 L 3.0335635772721465 1.1895927523465661 L 3.04989609427588 1.1895927523465661 Z M 3.135328627917672 1.1962255057053799 L 3.118996110913939 1.1962255057053799 L 3.118996110913939 1.1895927523465661 L 3.135328627917672 1.1895927523465661 Z M 3.1358391417937206 1.2097855396591881 L 3.119506624789987 1.2097855396591881 L 3.119506624789987 1.2031527863003748 L 3.1358391417937206 1.2031527863003748 Z M 3.017148592642283 1.2097855396591881 L 3.0008160756385496 1.2097855396591881 L 3.0008160756385496 1.2031527863003748 L 3.017148592642283 1.2031527863003748 Z M 2.90833845050729 1.2097855396591881 L 2.8920059335035564 1.2097855396591881 L 2.8920059335035564 1.2031527863003748 L 2.90833845050729 1.2031527863003748 Z M 3.220761161559464 1.1962255057053799 L 3.204428644555731 1.1962255057053799 L 3.204428644555731 1.1895927523465661 L 3.220761161559464 1.1895927523465661 Z M 3.306189768171441 1.1962255057053799 L 3.2898572511677076 1.1962255057053799 L 3.2898572511677076 1.1895927523465661 L 3.306189768171441 1.1895927523465661 Z M 3.4000968321556364 1.1962255057053799 L 3.383764315151903 1.1962255057053799 L 3.383764315151903 1.1895927523465661 L 3.4000968321556364 1.1895927523465661 Z M 3.4855254387676124 1.1962255057053799 L 3.4691929217638795 1.1962255057053799 L 3.4691929217638795 1.1895927523465661 L 3.4855254387676124 1.1895927523465661 Z M 3.581419579838581 1.1962255057053799 L 3.5650870628348486 1.1962255057053799 L 3.5650870628348486 1.1895927523465661 L 3.581419579838581 1.1895927523465661 Z M 3.581419579838581 1.208513181998883 L 3.5650870628348486 1.208513181998883 L 3.5650870628348486 1.2018804286400697 L 3.581419579838581 1.2018804286400697 Z M 3.668827409477699 1.1962255057053799 L 3.6524948924739657 1.1962255057053799 L 3.6524948924739657 1.1895927523465661 L 3.668827409477699 1.1895927523465661 Z M 3.68758683090757 1.2063925858983744 L 3.671254313903837 1.2063925858983744 L 3.671254313903837 1.199759832539561 L 3.68758683090757 1.199759832539561 Z M 3.7577078752977258 1.1936847174145848 L 3.741375358293993 1.1936847174145848 L 3.741375358293993 1.1870519640557715 L 3.7577078752977258 1.1870519640557715 Z M 3.7820750953044975 1.208513181998883 L 3.7657425783007645 1.208513181998883 L 3.7657425783007645 1.2018804286400697 L 3.7820750953044975 1.2018804286400697 Z M 3.8470910009341694 1.1936847174145848 L 3.8307584839304365 1.1936847174145848 L 3.8307584839304365 1.1870519640557715 L 3.8470910009341694 1.1870519640557715 Z M 3.871458220940941 1.208513181998883 L 3.855125703937208 1.208513181998883 L 3.855125703937208 1.2018804286400697 L 3.871458220940941 1.2018804286400697 Z M 3.9593608563368443 1.2114780895097796 L 3.9430283393331114 1.2114780895097796 L 3.9430283393331114 1.2048453361509663 L 3.9593608563368443 1.2048453361509663 Z M 3.8217616586225374 1.163745042099254 L 3.8050874900248335 1.163745042099254 L 3.8050874900248335 1.15485424659638 L 3.8217616586225374 1.15485424659638 Z M 3.844801542551583 1.1513199197621988 L 3.82846902554785 1.1513199197621988 L 3.82846902554785 1.1446871664033855 L 3.844801542551583 1.1446871664033855 Z M 3.9047162364505867 1.163745042099254 L 3.888042067852883 1.163745042099254 L 3.888042067852883 1.15485424659638 L 3.9047162364505867 1.15485424659638 Z M 3.933843016594056 1.1513199197621988 L 3.917510499590323 1.1513199197621988 L 3.917510499590323 1.1446871664033855 L 3.933843016594056 1.1446871664033855 Z" fill="#abaaaa" transform="matrix(1,0,0,1,0,0)" fill-rule="nonzero" stroke-dasharray="none" stroke-miterlimit="4" stroke-linejoin="miter" stroke-linecap="butt" stroke-width="0.015708119263027745" stroke="#abaaaa"></path></g><g clip-path="url(#d5327e9aa-80fd-421a-8554-15d55f271299d77d4b9e-4f14-4c37-9527-75f2bf77e220)"><path d=" M 2.8274141470939864 1.1908808181261343 L 2.8721822869936156 1.1908808181261343 M 2.8274141470939864 1.1908808181261343 L 2.8721822869936156 1.1908808181261343" fill="none" transform="matrix(1,0,0,1,0,0)" fill-rule="nonzero" stroke-dasharray="none" stroke-miterlimit="4" stroke-linejoin="miter" stroke-linecap="butt" stroke-width="0.015708119263027745" stroke="#abaaaa"></path></g><g clip-path="url(#d5327e9aa-80fd-421a-8554-15d55f271299d77d4b9e-4f14-4c37-9527-75f2bf77e220)"><path d=" M 4.001407564574154 1.166140530286866 L 3.956639424674525 1.166140530286866" fill="none" transform="matrix(1,0,0,1,0,0)" fill-rule="nonzero" stroke-dasharray="none" stroke-miterlimit="4" stroke-linejoin="miter" stroke-linecap="butt" stroke-width="0.015708119263027745" stroke="#abaaaa"></path></g><g clip-path="url(#d5327e9aa-80fd-421a-8554-15d55f271299d77d4b9e-4f14-4c37-9527-75f2bf77e220)"><path d=" M 4.009304821533641 1.1775603329910869 L 3.964536681634012 1.1775603329910869" fill="none" transform="matrix(1,0,0,1,0,0)" fill-rule="nonzero" stroke-dasharray="none" stroke-miterlimit="4" stroke-linejoin="miter" stroke-linecap="butt" stroke-width="0.015708119263027745" stroke="#abaaaa"></path></g><g clip-path="url(#d5327e9aa-80fd-421a-8554-15d55f271299d77d4b9e-4f14-4c37-9527-75f2bf77e220)"><path d=" M 4.01918130152027 1.1908808181261343 L 3.974413161620641 1.1908808181261343" fill="none" transform="matrix(1,0,0,1,0,0)" fill-rule="nonzero" stroke-dasharray="none" stroke-miterlimit="4" stroke-linejoin="miter" stroke-linecap="butt" stroke-width="0.015708119263027745" stroke="#abaaaa"></path></g><g clip-path="url(#d5327e9aa-80fd-421a-8554-15d55f271299d77d4b9e-4f14-4c37-9527-75f2bf77e220)"><path d=" M 3.957947125603172 1.1908808181261343 L 3.913178985703543 1.1908808181261343" fill="none" transform="matrix(1,0,0,1,0,0)" fill-rule="nonzero" stroke-dasharray="none" stroke-miterlimit="4" stroke-linejoin="miter" stroke-linecap="butt" stroke-width="0.015708119263027745" stroke="#abaaaa"></path></g><g clip-path="url(#d5327e9aa-80fd-421a-8554-15d55f271299d77d4b9e-4f14-4c37-9527-75f2bf77e220)"><path d=" M 4.023791634523969 1.2055639826072495 L 3.9507135366825477 1.2055639826072495" fill="none" transform="matrix(1,0,0,1,0,0)" fill-rule="nonzero" stroke-dasharray="none" stroke-miterlimit="4" stroke-linejoin="miter" stroke-linecap="butt" stroke-width="0.015708119263027745" stroke="#abaaaa"></path></g><g clip-path="url(#b5327e9aa-80fd-421a-8554-15d55f271299d77d4b9e-4f14-4c37-9527-75f2bf77e220)"><path d=" M 3.2356838748593404 0.876031202647822 C 3.2356838748593404 0.876031202647822 3.2373685706503004 1.029597703592997 3.2188408439795593 1.0430988320995693 C 3.2003131173088177 1.0565999606061416 3.146414633087554 1.0549113377853665 3.141360545714675 1.0633505248594277 C 3.1363064583417954 1.0717857849036738 3.259265688902961 1.0740359729881024 3.4305077510488577 1.0740359729881024 L 3.4305116780786737 1.0740359729881024 C 3.601753740224571 1.0740359729881024 3.724712970785736 1.0717857849036738 3.7196588834128566 1.0633505248594277 C 3.7146047960399775 1.0549113377853665 3.6607063118187138 1.0565999606061416 3.642178585147972 1.0430988320995693 C 3.623650858477231 1.029597703592997 3.625335554268191 0.876031202647822 3.625335554268191 0.876031202647822 Z" fill="#a4a3a5" transform="matrix(1,0,0,1,0,0)" fill-rule="nonzero"></path></g><g clip-path="url(#f5327e9aa-80fd-421a-8554-15d55f271299d77d4b9e-4f14-4c37-9527-75f2bf77e220)"><path d=" M 3.4583700275916534 0.876031202647822 L 3.625335554268191 0.876031202647822 C 3.625335554268191 0.876031202647822 3.623654785507047 1.029597703592997 3.642182512177788 1.0430988320995693 C 3.6607063118187138 1.0565999606061416 3.7146087230697935 1.0549113377853665 3.7196588834128566 1.0633505248594277 C 3.724712970785736 1.0717857849036738 3.6017576672543865 1.0740359729881024 3.4305116780786737 1.0740359729881024 L 3.5231071141044064 1.0740359729881024 C 3.5231071141044064 1.0740359729881024 3.461169999850288 0.906049418559468 3.4583700275916534 0.876031202647822" fill="#a4a3a5" transform="matrix(1,0,0,1,0,0)" fill-rule="nonzero"></path></g><g clip-path="url(#b5327e9aa-80fd-421a-8554-15d55f271299d77d4b9e-4f14-4c37-9527-75f2bf77e220)"><path d=" M 2.56533203125 0.807869746135729 C 2.56533203125 0.853281918925142 2.6015313920916476 0.8900978234478635 2.646181721096804 0.8900978234478635 L 4.1957641242155965 0.8900978234478635 C 4.240418380250569 0.8900978234478635 4.276613814062401 0.853281918925142 4.276613814062401 0.807869746135729 L 4.276613814062401 -0.23821638321541927 C 4.276613814062401 -0.283636410064464 4.240418380250569 -0.3204444605275538 4.1957641242155965 -0.3204444605275538 L 2.646181721096804 -0.3204444605275538 C 2.6015313920916476 -0.3204444605275538 2.56533203125 -0.28363641006446416 2.56533203125 -0.23821638321541927 Z" fill="#302c2d" transform="matrix(1,0,0,1,0,0)" fill-rule="nonzero"></path></g><g clip-path="url(#b5327e9aa-80fd-421a-8554-15d55f271299d77d4b9e-4f14-4c37-9527-75f2bf77e220)"><path d=" M 2.6366272575550673 0.6719591712421972 L 4.205310733697702 0.6719591712421972 L 4.205310733697702 -0.231002429443874 L 2.6366272575550673 -0.231002429443874 Z" fill="#b0e08e" transform="matrix(1,0,0,1,0,0)" fill-rule="nonzero"></path></g><g clip-path="url(#b5327e9aa-80fd-421a-8554-15d55f271299d77d4b9e-4f14-4c37-9527-75f2bf77e220)"><path d=" M 3.4073971805831285 -0.27656775639610165 C 3.4073971727624537 -0.2690647293748808 3.4134738304852608 -0.2629792852758843 3.4209768496859354 -0.2629684521441355 C 3.428476164978176 -0.26298361511810225 3.4345469192130245 -0.2690684260921343 3.434544737699456 -0.27656775639610165 C 3.4345512493908883 -0.2840688759167964 3.428477964204971 -0.29015622370227595 3.4209768496860162 -0.2901670606480679 C 3.413472032509612 -0.2901605567134963 3.40739284097203 -0.2840725751360971 3.4073971805831285 -0.27656775639610165" fill="#cceffc" transform="matrix(1,0,0,1,0,0)" fill-rule="nonzero"></path></g><g clip-path="url(#b5327e9aa-80fd-421a-8554-15d55f271299d77d4b9e-4f14-4c37-9527-75f2bf77e220)"><path d=" M 4.268897200474438 0.8430166629867534 C 4.2559419291122556 0.8708514503208385 4.228075725539645 0.890101750477679 4.195787686394491 0.890101750477679 C 4.228044309301119 0.890101750477679 4.255934075052624 0.8708553773506543 4.268897200474438 0.8430166629867534 M 4.268928616712964 0.8429459764500699 L 4.268928616712964 0.842957757539517 L 4.268928616712964 0.8429459764500699 M 3.694973573991009 -0.320444460527554 L 4.195787686394491 -0.320444460527554 C 4.240434088369832 -0.320444460527554 4.276633449211479 -0.2836324830346484 4.276633449211479 -0.23821638321541944 L 4.276633449211479 0.7263406801307991 L 4.276609887032585 -0.2382163832154196 C 4.276609887032585 -0.28363248303464855 4.240414453220753 -0.32044446052755415 4.1957641242155965 -0.32044446052755415 Z" fill="#ffffff" transform="matrix(1,0,0,1,0,0)" fill-rule="nonzero"></path></g><g clip-path="url(#b5327e9aa-80fd-421a-8554-15d55f271299d77d4b9e-4f14-4c37-9527-75f2bf77e220)"><path d=" M 2.6366272575550673 -0.16977610758640754 L 4.205310733697702 -0.16977610758640754 L 4.205310733697702 -0.231002429443874 L 2.6366272575550673 -0.231002429443874 Z" fill="#dbdcde" transform="matrix(1,0,0,1,0,0)" fill-rule="nonzero"></path></g><g clip-path="url(#b5327e9aa-80fd-421a-8554-15d55f271299d77d4b9e-4f14-4c37-9527-75f2bf77e220)"><path d=" M 2.9280167969140476 -0.19183423406151426 C 2.9280167969140476 -0.18710609016334293 2.9315707588973074 -0.1832772360929799 2.9359376160524295 -0.1832772360929799 L 4.156399577342449 -0.1832772360929799 C 4.160778215587018 -0.1832772360929799 4.164324323510646 -0.18710609016334293 4.164324323510646 -0.19183423406151426 C 4.164324323510646 -0.19656237795968562 4.160778215587017 -0.20039123203004863 4.156399577342449 -0.20039123203004863 L 2.9359376160524295 -0.20039123203004863 C 2.9315707588973074 -0.20039123203004863 2.9280167969140476 -0.19656237795968562 2.9280167969140476 -0.19183423406151426" fill="#ffffff" transform="matrix(1,0,0,1,0,0)" fill-rule="nonzero"></path></g><g clip-path="url(#b5327e9aa-80fd-421a-8554-15d55f271299d77d4b9e-4f14-4c37-9527-75f2bf77e220)"><path d=" M 2.6618898403598314 -0.19183423406151426 C 2.6618898403598314 -0.18710609016334293 2.6657186944301947 -0.1832772360929799 2.670431130209103 -0.1832772360929799 L 2.880735357932334 -0.1832772360929799 C 2.8854595748006897 -0.1832772360929799 2.8892766477816054 -0.18710609016334293 2.8892766477816054 -0.19183423406151426 C 2.8892808188439467 -0.19410224537226553 2.8883827772298734 -0.1962787934994463 2.8867805223547416 -0.19788399505021065 C 2.88517826747961 -0.19948919660097503 2.8830033730785463 -0.20039123586551133 2.880735357932335 -0.20039123203004863 L 2.670431130209103 -0.20039123203004863 C 2.6657186944301947 -0.20039123203004863 2.6618898403598314 -0.19656237795968562 2.6618898403598314 -0.19183423406151426" fill="#ffffff" transform="matrix(1,0,0,1,0,0)" fill-rule="nonzero"></path></g><g clip-path="url(#b5327e9aa-80fd-421a-8554-15d55f271299d77d4b9e-4f14-4c37-9527-75f2bf77e220)"><path d=" M 4.1834136154450405 -0.21758376856343267 C 4.1834136154450405 -0.21417117965353988 4.186182171465149 -0.21139476957379977 4.1895908333452265 -0.21139476957379977 C 4.1930089231039185 -0.21139476957379977 4.195779832334859 -0.21416567880474022 4.195779832334859 -0.21758376856343267 C 4.195779832334859 -0.22100185832212513 4.1930089231039185 -0.2237727675530656 4.1895908333452265 -0.2237727675530656 C 4.186176446243046 -0.22376843250987755 4.183411444826495 -0.22099815772762443 4.1834136154450405 -0.21758376856343267" fill="#c91e25" transform="matrix(1,0,0,1,0,0)" fill-rule="nonzero"></path></g><g clip-path="url(#b5327e9aa-80fd-421a-8554-15d55f271299d77d4b9e-4f14-4c37-9527-75f2bf77e220)"><path d=" M 4.163758831217177 -0.21758376856343267 C 4.163758831217177 -0.21417117965353988 4.166527387237286 -0.21139476957379977 4.169936049117363 -0.21139476957379977 C 4.173354138876055 -0.21139476957379977 4.1761250481069965 -0.21416567880474022 4.1761250481069965 -0.21758376856343267 C 4.1761250481069965 -0.22100185832212513 4.173354138876055 -0.2237727675530656 4.169936049117363 -0.2237727675530656 C 4.166521662015183 -0.22376843250987755 4.163756660598632 -0.22099815772762443 4.163758831217177 -0.21758376856343267" fill="#fff200" transform="matrix(1,0,0,1,0,0)" fill-rule="nonzero"></path></g><g clip-path="url(#b5327e9aa-80fd-421a-8554-15d55f271299d77d4b9e-4f14-4c37-9527-75f2bf77e220)"><path d=" M 4.144107974019129 -0.21758376856343267 C 4.144107974019129 -0.21417117965353988 4.146876530039238 -0.21139476957379977 4.150285191919315 -0.21139476957379977 C 4.153703281678007 -0.21139476957379977 4.156474190908948 -0.21416567880474022 4.156474190908948 -0.21758376856343267 C 4.156474190908948 -0.22100185832212513 4.153703281678007 -0.2237727675530656 4.150285191919315 -0.2237727675530656 C 4.146870804817135 -0.22376843250987755 4.144105803400584 -0.22099815772762443 4.144107974019129 -0.21758376856343267" fill="#6ec72e" transform="matrix(1,0,0,1,0,0)" fill-rule="nonzero"></path></g><g clip-path="url(#g5327e9aa-80fd-421a-8554-15d55f271299d77d4b9e-4f14-4c37-9527-75f2bf77e220)"><path d=" M 2.800875279599101 0.890101750477679 L 2.646181721096804 0.890101750477679 C 2.6015274650618316 0.890101750477679 2.56533203125 0.8532858459549578 2.56533203125 0.8078736731655446 L 2.56533203125 -0.23821245618560366 C 2.56533203125 -0.2836324830346484 2.6015274650618316 -0.3204405334977384 2.646181721096804 -0.3204405334977384 L 3.228854770009739 -0.3204405334977384 Z" fill="#ffffff" transform="matrix(1,0,0,1,0,0)" fill-rule="nonzero" opacity="0.29"></path></g><g clip-path="url(#b5327e9aa-80fd-421a-8554-15d55f271299d77d4b9e-4f14-4c37-9527-75f2bf77e220)"><path d=" M 2.8026620781652705 1.117618149883373 L 2.776775097619801 1.2001682436403995 C 2.776775097619801 1.2001682436403995 2.7648290729202682 1.2240092416518595 2.816599106981392 1.2221753187279014 C 2.8683652140127 1.2203413958039429 4.098813612124189 1.2222734944732951 4.098813612124189 1.2222734944732951 C 4.098813612124189 1.2222734944732951 4.116728722143672 1.2240092416518595 4.108768632707132 1.1965003977924824 C 4.100804616240778 1.1689797728436582 4.082889506221295 1.117618149883373 4.082889506221295 1.117618149883373 Z" fill="#bfc0c2" transform="matrix(1,0,0,1,0,0)" fill-rule="nonzero"></path></g><g clip-path="url(#b5327e9aa-80fd-421a-8554-15d55f271299d77d4b9e-4f14-4c37-9527-75f2bf77e220)"><path d=" M 2.8077161655381495 1.117618149883373 L 2.782037317572915 1.1938849959351883 C 2.782037317572915 1.1938849959351883 2.7701855415889605 1.2159195602314008 2.82154323751943 1.2142230833509933 C 2.872900933449899 1.2125305335004022 4.0936377868270215 1.2143173320665719 4.0936377868270215 1.2143173320665719 C 4.0936377868270215 1.2143173320665719 4.111415450802953 1.2159195602314008 4.10351426681365 1.19049596920419 C 4.095613082824347 1.1650723781769798 4.077835418848416 1.117618149883373 4.077835418848416 1.117618149883373 Z" fill="#302c2d" transform="matrix(1,0,0,1,0,0)" fill-rule="nonzero"></path></g><g clip-path="url(#b5327e9aa-80fd-421a-8554-15d55f271299d77d4b9e-4f14-4c37-9527-75f2bf77e220)"><path d=" M 2.8922062120241603 1.1513945333286983 L 2.87550062718793 1.1513945333286983 L 2.87550062718793 1.1424841026767458 L 2.8922062120241603 1.1424841026767458 Z M 2.901419023971926 1.1389654839618277 L 2.885055090729667 1.1389654839618277 L 2.885055090729667 1.1323130954539353 L 2.901419023971926 1.1323130954539353 Z M 2.979119235906493 1.1513945333286983 L 2.9624136510702628 1.1513945333286983 L 2.9624136510702628 1.1424841026767458 L 2.979119235906493 1.1424841026767458 Z M 2.9883320478542585 1.1389654839618277 L 2.9719681146119994 1.1389654839618277 L 2.9719681146119994 1.1323130954539353 L 2.9883320478542585 1.1323130954539353 Z M 3.066695927827688 1.1513945333286983 L 3.049990342991458 1.1513945333286983 L 3.049990342991458 1.1424841026767458 L 3.066695927827688 1.1424841026767458 Z M 3.075908739775454 1.1389654839618277 L 3.0595448065331947 1.1389654839618277 L 3.0595448065331947 1.1323130954539353 L 3.075908739775454 1.1323130954539353 Z M 3.1569037297254408 1.1513945333286983 L 3.1401981448892107 1.1513945333286983 L 3.1401981448892107 1.1424841026767458 L 3.1569037297254408 1.1424841026767458 Z M 3.1661165416732064 1.1389654839618277 L 3.1497526084309473 1.1389654839618277 L 3.1497526084309473 1.1323130954539353 L 3.1661165416732064 1.1323130954539353 Z M 3.2438167536077733 1.1513945333286983 L 3.2271111687715432 1.1513945333286983 L 3.2271111687715432 1.1424841026767458 L 3.2438167536077733 1.1424841026767458 Z M 3.253029565555539 1.1389654839618277 L 3.23666563231328 1.1389654839618277 L 3.23666563231328 1.1323130954539353 L 3.253029565555539 1.1323130954539353 Z M 3.3320414054485683 1.1513945333286983 L 3.3153358206123387 1.1513945333286983 L 3.3153358206123387 1.1424841026767458 L 3.3320414054485683 1.1424841026767458 Z M 3.3412542173963344 1.1389654839618277 L 3.3248902841540753 1.1389654839618277 L 3.3248902841540753 1.1323130954539353 L 3.3412542173963344 1.1323130954539353 Z M 3.421585539307458 1.1513945333286983 L 3.404879954471228 1.1513945333286983 L 3.404879954471228 1.1424841026767458 L 3.421585539307458 1.1424841026767458 Z M 3.430798351255224 1.1389654839618277 L 3.4144344180129647 1.1389654839618277 L 3.4144344180129647 1.1323130954539353 L 3.430798351255224 1.1323130954539353 Z M 3.4979662692239306 1.1513945333286983 L 3.4812606843877005 1.1513945333286983 L 3.4812606843877005 1.1424841026767458 L 3.4979662692239306 1.1424841026767458 Z M 3.5210061531529764 1.1389654839618277 L 3.5046422199107172 1.1389654839618277 L 3.5046422199107172 1.1323130954539353 L 3.5210061531529764 1.1323130954539353 Z M 3.5888338121307304 1.1513945333286983 L 3.5721282272945 1.1513945333286983 L 3.5721282272945 1.1424841026767458 L 3.5888338121307304 1.1424841026767458 Z M 3.6118697690299606 1.1389654839618277 L 3.5955058357877014 1.1389654839618277 L 3.5955058357877014 1.1323130954539353 L 3.6118697690299606 1.1323130954539353 Z M 3.6731157260365057 1.1513945333286983 L 3.6564101412002756 1.1513945333286983 L 3.6564101412002756 1.1424841026767458 L 3.6731157260365057 1.1424841026767458 Z M 3.696151682935736 1.1389654839618277 L 3.679787749693477 1.1389654839618277 L 3.679787749693477 1.1323130954539353 L 3.696151682935736 1.1323130954539353 Z M 3.7613482319369327 1.1513945333286983 L 3.7446426471007026 1.1513945333286983 L 3.7446426471007026 1.1424841026767458 L 3.7613482319369327 1.1424841026767458 Z M 3.784388115865979 1.1389654839618277 L 3.7680241826237193 1.1389654839618277 L 3.7680241826237193 1.1323130954539353 L 3.784388115865979 1.1323130954539353 Z M 3.8031436102660336 1.156476109910288 L 3.7867796770237745 1.156476109910288 L 3.7867796770237745 1.1498237214023956 L 3.8031436102660336 1.1498237214023956 Z M 3.8268471622339426 1.1711632014212188 L 3.810483228991683 1.1711632014212188 L 3.810483228991683 1.1645108129133264 L 3.8268471622339426 1.1645108129133264 Z M 3.892365727680031 1.156476109910288 L 3.876001794437772 1.156476109910288 L 3.876001794437772 1.1498237214023956 L 3.892365727680031 1.1498237214023956 Z M 3.9160692796479397 1.1711632014212188 L 3.899705346405681 1.1711632014212188 L 3.899705346405681 1.1645108129133264 L 3.9160692796479397 1.1645108129133264 Z M 3.975328159567712 1.1615616135216928 L 3.9589642263254534 1.1615616135216928 L 3.9589642263254534 1.154905297983985 L 3.975328159567712 1.154905297983985 Z M 3.7149111043656067 1.156476109910288 L 3.698547171123348 1.156476109910288 L 3.698547171123348 1.1498237214023956 L 3.7149111043656067 1.1498237214023956 Z M 3.7386146563335156 1.1711632014212188 L 3.722250723091257 1.1711632014212188 L 3.722250723091257 1.1645108129133264 L 3.7386146563335156 1.1645108129133264 Z M 3.630629190459832 1.156476109910288 L 3.614265257217572 1.156476109910288 L 3.614265257217572 1.1498237214023956 L 3.630629190459832 1.1498237214023956 Z M 3.6543327424277403 1.1711632014212188 L 3.637968809185481 1.1711632014212188 L 3.637968809185481 1.1645108129133264 L 3.6543327424277403 1.1645108129133264 Z M 3.5397655745828476 1.156476109910288 L 3.5234016413405884 1.156476109910288 L 3.5234016413405884 1.1498237214023956 L 3.5397655745828476 1.1498237214023956 Z M 3.563469126550756 1.1711632014212188 L 3.5471051933084974 1.1711632014212188 L 3.5471051933084974 1.1645108129133264 L 3.563469126550756 1.1645108129133264 Z M 3.449557772685095 1.156476109910288 L 3.433193839442836 1.156476109910288 L 3.433193839442836 1.1498237214023956 L 3.449557772685095 1.1498237214023956 Z M 3.473261324653004 1.1711632014212188 L 3.4568973914107444 1.1711632014212188 L 3.4568973914107444 1.1645108129133264 L 3.473261324653004 1.1645108129133264 Z M 3.364620044800088 1.156476109910288 L 3.348256111557829 1.156476109910288 L 3.348256111557829 1.1498237214023956 L 3.364620044800088 1.1498237214023956 Z M 3.388323596767997 1.1711632014212188 L 3.371959663525738 1.1711632014212188 L 3.371959663525738 1.1645108129133264 L 3.388323596767997 1.1645108129133264 Z M 3.279682316915081 1.156476109910288 L 3.2633183836728223 1.156476109910288 L 3.2633183836728223 1.1498237214023956 L 3.279682316915081 1.1498237214023956 Z M 3.30338586888299 1.1711632014212188 L 3.2870219356407313 1.1711632014212188 L 3.2870219356407313 1.1645108129133264 L 3.30338586888299 1.1645108129133264 Z M 3.196064071048169 1.156476109910288 L 3.1797001378059098 1.156476109910288 L 3.1797001378059098 1.1498237214023956 L 3.196064071048169 1.1498237214023956 Z M 3.219767623016078 1.1711632014212188 L 3.2034036897738183 1.1711632014212188 L 3.2034036897738183 1.1645108129133264 L 3.219767623016078 1.1645108129133264 Z M 3.1124458251812563 1.156476109910288 L 3.096081891938997 1.156476109910288 L 3.096081891938997 1.1498237214023956 L 3.1124458251812563 1.1498237214023956 Z M 3.1361493771491653 1.1711632014212188 L 3.119785443906906 1.1711632014212188 L 3.119785443906906 1.1645108129133264 L 3.1361493771491653 1.1645108129133264 Z M 3.020926395325041 1.156476109910288 L 3.0045624620827818 1.156476109910288 L 3.0045624620827818 1.1498237214023956 L 3.020926395325041 1.1498237214023956 Z M 3.04462994729295 1.1711632014212188 L 3.0282660140506907 1.1711632014212188 L 3.0282660140506907 1.1645108129133264 L 3.04462994729295 1.1645108129133264 Z M 2.9294069654688255 1.156476109910288 L 2.9130430322265664 1.156476109910288 L 2.9130430322265664 1.1498237214023956 L 2.9294069654688255 1.1498237214023956 Z M 2.9531105174367345 1.1711632014212188 L 2.9367465841944753 1.1711632014212188 L 2.9367465841944753 1.1645108129133264 L 2.9531105174367345 1.1645108129133264 Z M 2.994913749825467 1.183874996934824 L 2.978549816583208 1.183874996934824 L 2.978549816583208 1.177222608426932 L 2.994913749825467 1.177222608426932 Z M 3.080346283467259 1.183874996934824 L 3.063982350225 1.183874996934824 L 3.063982350225 1.177222608426932 L 3.080346283467259 1.177222608426932 Z M 3.1657788171090515 1.183874996934824 L 3.1494148838667924 1.183874996934824 L 3.1494148838667924 1.177222608426932 L 3.1657788171090515 1.177222608426932 Z M 3.1662893309850997 1.197431103858817 L 3.1499253977428405 1.197431103858817 L 3.1499253977428405 1.1907787153509246 L 3.1662893309850997 1.1907787153509246 Z M 3.047598781833662 1.197431103858817 L 3.031234848591403 1.197431103858817 L 3.031234848591403 1.1907787153509246 L 3.047598781833662 1.1907787153509246 Z M 2.932536808231984 1.2076021110816275 L 2.9161728749897247 1.2076021110816275 L 2.9161728749897247 1.2009497225737351 L 2.932536808231984 1.2009497225737351 Z M 2.938788639698669 1.197431103858817 L 2.9224247064564097 1.197431103858817 L 2.9224247064564097 1.1907787153509246 L 2.938788639698669 1.1907787153509246 Z M 3.2512113507508436 1.183874996934824 L 3.2348474175085844 1.183874996934824 L 3.2348474175085844 1.177222608426932 L 3.2512113507508436 1.177222608426932 Z M 3.33663995736282 1.183874996934824 L 3.320276024120561 1.183874996934824 L 3.320276024120561 1.177222608426932 L 3.33663995736282 1.177222608426932 Z M 3.4305470213470155 1.183874996934824 L 3.4141830881047563 1.183874996934824 L 3.4141830881047563 1.177222608426932 L 3.4305470213470155 1.177222608426932 Z M 3.515975627958992 1.183874996934824 L 3.499611694716733 1.183874996934824 L 3.499611694716733 1.177222608426932 L 3.515975627958992 1.177222608426932 Z M 3.6118697690299606 1.183874996934824 L 3.5955058357877014 1.183874996934824 L 3.5955058357877014 1.177222608426932 L 3.6118697690299606 1.177222608426932 Z M 3.6118697690299606 1.1961626732283275 L 3.5955058357877014 1.1961626732283275 L 3.5955058357877014 1.189510284720435 L 3.6118697690299606 1.189510284720435 Z M 3.6992775986690782 1.183874996934824 L 3.6829136654268195 1.183874996934824 L 3.6829136654268195 1.177222608426932 L 3.6992775986690782 1.177222608426932 Z M 3.718037020098949 1.1940420771278184 L 3.7016730868566903 1.1940420771278184 L 3.7016730868566903 1.1873896886199264 L 3.718037020098949 1.1873896886199264 Z M 3.718037020098949 1.204213084350629 L 3.7016730868566903 1.204213084350629 L 3.7016730868566903 1.197560695842737 L 3.718037020098949 1.197560695842737 Z M 3.788158064489105 1.1813302816142137 L 3.771794131246846 1.1813302816142137 L 3.771794131246846 1.1746778931063213 L 3.788158064489105 1.1746778931063213 Z M 3.8125252844958766 1.1961626732283275 L 3.796161351253618 1.1961626732283275 L 3.796161351253618 1.189510284720435 L 3.8125252844958766 1.189510284720435 Z M 3.8125252844958766 1.204213084350629 L 3.796161351253618 1.204213084350629 L 3.796161351253618 1.197560695842737 L 3.8125252844958766 1.197560695842737 Z M 3.877541190125549 1.1813302816142137 L 3.86117725688329 1.1813302816142137 L 3.86117725688329 1.1746778931063213 L 3.877541190125549 1.1746778931063213 Z M 3.9019084101323207 1.1961626732283275 L 3.8855444768900615 1.1961626732283275 L 3.8855444768900615 1.189510284720435 L 3.9019084101323207 1.189510284720435 Z M 3.9019084101323207 1.204213084350629 L 3.8855444768900615 1.204213084350629 L 3.8855444768900615 1.197560695842737 L 3.9019084101323207 1.197560695842737 Z M 3.989811045528224 1.1991275807392237 L 3.9734471122859647 1.1991275807392237 L 3.9734471122859647 1.1924751922313317 L 3.989811045528224 1.1924751922313317 Z M 3.8522118478139165 1.1513945333286983 L 3.8355062629776864 1.1513945333286983 L 3.8355062629776864 1.1424841026767458 L 3.8522118478139165 1.1424841026767458 Z M 3.8752517317429627 1.1389654839618277 L 3.858887798500703 1.1389654839618277 L 3.858887798500703 1.1323130954539353 L 3.8752517317429627 1.1323130954539353 Z M 3.935166425641966 1.1513945333286983 L 3.9184608408057358 1.1513945333286983 L 3.9184608408057358 1.1424841026767458 L 3.935166425641966 1.1424841026767458 Z M 3.9642932057854354 1.1389654839618277 L 3.947929272543176 1.1389654839618277 L 3.947929272543176 1.1323130954539353 L 3.9642932057854354 1.1323130954539353 Z" fill="#abaaaa" transform="matrix(1,0,0,1,0,0)" fill-rule="nonzero" stroke-dasharray="none" stroke-miterlimit="10" stroke-linejoin="miter" stroke-linecap="butt" stroke-width="0.01029274514709893" stroke="#abaaaa"></path></g><g clip-path="url(#b5327e9aa-80fd-421a-8554-15d55f271299d77d4b9e-4f14-4c37-9527-75f2bf77e220)"><path d=" M 2.8143921162249366 1.1537546782479682 L 2.8591602561245657 1.1537546782479682" fill="none" transform="matrix(1,0,0,1,0,0)" fill-rule="nonzero" stroke-dasharray="none" stroke-miterlimit="10" stroke-linejoin="miter" stroke-linecap="butt" stroke-width="0.01029274514709893" stroke="#abaaaa"></path></g><g clip-path="url(#b5327e9aa-80fd-421a-8554-15d55f271299d77d4b9e-4f14-4c37-9527-75f2bf77e220)"><path d=" M 2.8064909322356337 1.1651901890714522 L 2.8512590721352624 1.1651901890714522" fill="none" transform="matrix(1,0,0,1,0,0)" fill-rule="nonzero" stroke-dasharray="none" stroke-miterlimit="10" stroke-linejoin="miter" stroke-linecap="butt" stroke-width="0.01029274514709893" stroke="#abaaaa"></path></g><g clip-path="url(#b5327e9aa-80fd-421a-8554-15d55f271299d77d4b9e-4f14-4c37-9527-75f2bf77e220)"><path d=" M 2.796614452249005 1.1785342363853943 L 2.841382592148634 1.1785342363853943" fill="none" transform="matrix(1,0,0,1,0,0)" fill-rule="nonzero" stroke-dasharray="none" stroke-miterlimit="10" stroke-linejoin="miter" stroke-linecap="butt" stroke-width="0.01029274514709893" stroke="#abaaaa"></path></g><g clip-path="url(#b5327e9aa-80fd-421a-8554-15d55f271299d77d4b9e-4f14-4c37-9527-75f2bf77e220)"><path d=" M 2.857848628166103 1.1785342363853943 L 2.902616768065732 1.1785342363853943" fill="none" transform="matrix(1,0,0,1,0,0)" fill-rule="nonzero" stroke-dasharray="none" stroke-miterlimit="10" stroke-linejoin="miter" stroke-linecap="butt" stroke-width="0.01029274514709893" stroke="#abaaaa"></path></g><g clip-path="url(#b5327e9aa-80fd-421a-8554-15d55f271299d77d4b9e-4f14-4c37-9527-75f2bf77e220)"><path d=" M 2.792008046275122 1.1932370360155886 L 2.865086144116543 1.1932370360155886" fill="none" transform="matrix(1,0,0,1,0,0)" fill-rule="nonzero" stroke-dasharray="none" stroke-miterlimit="10" stroke-linejoin="miter" stroke-linecap="butt" stroke-width="0.01029274514709893" stroke="#abaaaa"></path></g><g clip-path="url(#b5327e9aa-80fd-421a-8554-15d55f271299d77d4b9e-4f14-4c37-9527-75f2bf77e220)"><path d=" M 2.8143921162249366 1.1537546782479682 L 2.8591602561245657 1.1537546782479682" fill="none" transform="matrix(1,0,0,1,0,0)" fill-rule="nonzero" stroke-dasharray="none" stroke-miterlimit="10" stroke-linejoin="miter" stroke-linecap="butt" stroke-width="0.01029274514709893" stroke="#abaaaa"></path></g><g clip-path="url(#b5327e9aa-80fd-421a-8554-15d55f271299d77d4b9e-4f14-4c37-9527-75f2bf77e220)"><path d=" M 2.8064909322356337 1.1651901890714522 L 2.8512590721352624 1.1651901890714522" fill="none" transform="matrix(1,0,0,1,0,0)" fill-rule="nonzero" stroke-dasharray="none" stroke-miterlimit="10" stroke-linejoin="miter" stroke-linecap="butt" stroke-width="0.01029274514709893" stroke="#abaaaa"></path></g><g clip-path="url(#b5327e9aa-80fd-421a-8554-15d55f271299d77d4b9e-4f14-4c37-9527-75f2bf77e220)"><path d=" M 2.796614452249005 1.1785342363853943 L 2.841382592148634 1.1785342363853943" fill="none" transform="matrix(1,0,0,1,0,0)" fill-rule="nonzero" stroke-dasharray="none" stroke-miterlimit="10" stroke-linejoin="miter" stroke-linecap="butt" stroke-width="0.01029274514709893" stroke="#abaaaa"></path></g><g clip-path="url(#b5327e9aa-80fd-421a-8554-15d55f271299d77d4b9e-4f14-4c37-9527-75f2bf77e220)"><path d=" M 2.857848628166103 1.1785342363853943 L 2.902616768065732 1.1785342363853943" fill="none" transform="matrix(1,0,0,1,0,0)" fill-rule="nonzero" stroke-dasharray="none" stroke-miterlimit="10" stroke-linejoin="miter" stroke-linecap="butt" stroke-width="0.01029274514709893" stroke="#abaaaa"></path></g><g clip-path="url(#b5327e9aa-80fd-421a-8554-15d55f271299d77d4b9e-4f14-4c37-9527-75f2bf77e220)"><path d=" M 2.792008046275122 1.1932370360155886 L 2.865086144116543 1.1932370360155886" fill="none" transform="matrix(1,0,0,1,0,0)" fill-rule="nonzero" stroke-dasharray="none" stroke-miterlimit="10" stroke-linejoin="miter" stroke-linecap="butt" stroke-width="0.01029274514709893" stroke="#abaaaa"></path></g><g clip-path="url(#b5327e9aa-80fd-421a-8554-15d55f271299d77d4b9e-4f14-4c37-9527-75f2bf77e220)"><path d=" M 4.03184204564627 1.1537546782479682 L 3.987073905746641 1.1537546782479682" fill="none" transform="matrix(1,0,0,1,0,0)" fill-rule="nonzero" stroke-dasharray="none" stroke-miterlimit="10" stroke-linejoin="miter" stroke-linecap="butt" stroke-width="0.01029274514709893" stroke="#abaaaa"></path></g><g clip-path="url(#b5327e9aa-80fd-421a-8554-15d55f271299d77d4b9e-4f14-4c37-9527-75f2bf77e220)"><path d=" M 4.039739302605757 1.1651901890714522 L 3.9949711627061286 1.1651901890714522" fill="none" transform="matrix(1,0,0,1,0,0)" fill-rule="nonzero" stroke-dasharray="none" stroke-miterlimit="10" stroke-linejoin="miter" stroke-linecap="butt" stroke-width="0.01029274514709893" stroke="#abaaaa"></path></g><g clip-path="url(#b5327e9aa-80fd-421a-8554-15d55f271299d77d4b9e-4f14-4c37-9527-75f2bf77e220)"><path d=" M 4.049615782592387 1.1785342363853943 L 4.0048476426927575 1.1785342363853943" fill="none" transform="matrix(1,0,0,1,0,0)" fill-rule="nonzero" stroke-dasharray="none" stroke-miterlimit="10" stroke-linejoin="miter" stroke-linecap="butt" stroke-width="0.01029274514709893" stroke="#abaaaa"></path></g><g clip-path="url(#b5327e9aa-80fd-421a-8554-15d55f271299d77d4b9e-4f14-4c37-9527-75f2bf77e220)"><path d=" M 3.988381606675288 1.1785342363853943 L 3.943613466775659 1.1785342363853943" fill="none" transform="matrix(1,0,0,1,0,0)" fill-rule="nonzero" stroke-dasharray="none" stroke-miterlimit="10" stroke-linejoin="miter" stroke-linecap="butt" stroke-width="0.01029274514709893" stroke="#abaaaa"></path></g><g clip-path="url(#b5327e9aa-80fd-421a-8554-15d55f271299d77d4b9e-4f14-4c37-9527-75f2bf77e220)"><path d=" M 4.054226115596085 1.1932370360155886 L 3.9811480177546636 1.1932370360155886" fill="none" transform="matrix(1,0,0,1,0,0)" fill-rule="nonzero" stroke-dasharray="none" stroke-miterlimit="10" stroke-linejoin="miter" stroke-linecap="butt" stroke-width="0.01029274514709893" stroke="#abaaaa"></path></g><g clip-path="url(#b5327e9aa-80fd-421a-8554-15d55f271299d77d4b9e-4f14-4c37-9527-75f2bf77e220)"><path d=" M 3.4209847037456473 0.8123190709169815 C 3.438200802457926 0.8123190709169815 3.4521574664231256 0.7983349177430711 3.4521574664231256 0.7810874027922666 C 3.4521574664231256 0.7638398878414622 3.438200802457926 0.7498557346675517 3.4209847037456473 0.7498557346675517 C 3.4037686050333686 0.7498557346675517 3.389811941068169 0.7638398878414622 3.389811941068169 0.7810874027922666 C 3.389811941068169 0.7983349177430711 3.4037686050333686 0.8123190709169815 3.4209847037456473 0.8123190709169815" fill="#9a9898" transform="matrix(1,0,0,1,0,0)" fill-rule="nonzero"></path></g><g clip-path="url(#b5327e9aa-80fd-421a-8554-15d55f271299d77d4b9e-4f14-4c37-9527-75f2bf77e220)"><path d=" M 3.487359361691571 0.7776787409121896 L 3.582664448290176 0.7776787409121896" fill="none" transform="matrix(1,0,0,1,0,0)" fill-rule="nonzero" stroke-dasharray="none" stroke-miterlimit="10" stroke-linejoin="miter" stroke-linecap="butt" stroke-width="0.007854059631513872" stroke="#9a9898"></path></g><g clip-path="url(#b5327e9aa-80fd-421a-8554-15d55f271299d77d4b9e-4f14-4c37-9527-75f2bf77e220)"><path d=" M 3.2593010321713027 0.7776787409121896 L 3.354606118769908 0.7776787409121896" fill="none" transform="matrix(1,0,0,1,0,0)" fill-rule="nonzero" stroke-dasharray="none" stroke-miterlimit="10" stroke-linejoin="miter" stroke-linecap="butt" stroke-width="0.007854059631513872" stroke="#9a9898"></path></g><g clip-path="url(#b5327e9aa-80fd-421a-8554-15d55f271299d77d4b9e-4f14-4c37-9527-75f2bf77e220)"><path d=" M 3.401561614276914 0.19857928913159284 L 3.384459399429292 0.21484504662845816 L 3.4417469103815543 0.272073652133484 L 3.457945908371552 0.25497536431567824 Z M 3.6868485493022076 0.04965453742864262 L 3.648167305617002 0.08833578111384843 L 3.5954940546982543 0.09419490959895777 L 3.562330287904187 0.06103506983470619 L 3.5681972704489278 0.008357891886142665 L 3.6068667330446864 -0.03031942476924737 C 3.5756162037411126 -0.03570215423286438 3.5437008590494212 -0.025542743811636015 3.5213124614786055 -0.0030854729969730377 C 3.492209243514031 0.026009890907970123 3.4853173061873775 0.06895981600290368 3.500624868409198 0.10460546564052936 L 3.411826870215302 0.18885989033759443 L 3.467669234195366 0.24469832728784235 L 3.551923658892431 0.15590032909394647 C 3.587565381500241 0.1712118183455828 3.63051923362499 0.16431595398911358 3.6596145975299335 0.13521666305435476 C 3.6820702722192395 0.1128240511796873 3.692229198576661 0.08090729739807206 3.6868485493022076 0.04965453742864262 M 3.373012107516361 0.2257425543671836 L 3.1512880770889082 0.436093906448204 C 3.136251479924375 0.45112264955310566 3.136251479924375 0.47546630738098283 3.1512880770889082 0.4905618099927527 L 3.166041928106707 0.5052489015036836 C 3.1809999846749255 0.5202776446085853 3.2054064749798545 0.5202776446085853 3.2204352180847566 0.5052489015036836 L 3.430782643135961 0.28352094404641537 Z M 3.2109200248411773 0.47766937110762253 C 3.2020581733265465 0.48649794902866794 3.187725531969784 0.48649794902866794 3.1788636804551533 0.47766937110762253 C 3.1700396444591474 0.46877464857493323 3.1700396444591474 0.45443313568778876 3.1788636804551533 0.445609099691783 C 3.187754475958027 0.4367183041889092 3.2020959888451714 0.4367183041889092 3.2109200248411773 0.445609099691783 C 3.2198147473738667 0.45443313568778876 3.2198147473738667 0.46877464857493323 3.2109200248411773 0.47766937110762253" fill="#302c2d" transform="matrix(1,0,0,1,0,0)" fill-rule="nonzero"></path></g><g clip-path="url(#b5327e9aa-80fd-421a-8554-15d55f271299d77d4b9e-4f14-4c37-9527-75f2bf77e220)"><path d=" M 3.699328650056683 0.45195125284423054 L 3.638243701272584 0.5130362016283297 C 3.6329971894387327 0.518345545939233 3.623623369268521 0.5175208696779241 3.6174186621596247 0.5113122355392123 C 3.614249549098309 0.5081391954480808 3.6125177289495607 0.5042828521690075 3.6121760773555893 0.5004893413669862 C 3.611975798834986 0.4976618798996413 3.6125177289495607 0.49483441843229636 3.61397072998139 0.4924899816322893 C 3.612565590393163 0.49150425532746467 3.611250170306164 0.4903964639854669 3.610039773135818 0.4891794954976063 L 3.4773964870489955 0.3565990418878363 C 3.4660827141498 0.34522243651158857 3.4540110244961633 0.3417745043333539 3.4511914170884497 0.34101658757891284 C 3.451053971044898 0.34101658757891284 3.450845838464663 0.34101658757891284 3.4507123194509273 0.340949828072045 C 3.4506494869738753 0.340949828072045 3.4506494869738753 0.34087914153536136 3.4505670193477442 0.34087914153536136 C 3.4473915881522372 0.3401207970272041 3.444498996288347 0.3384708070379573 3.4422299350488923 0.3361235084284797 C 3.4390568949577607 0.33301722784421606 3.4373368558984594 0.32909412505827484 3.4369912772746725 0.3253713007929372 C 3.4367163851875695 0.32157386296110024 3.4378159535359814 0.3178510386957627 3.440439209452907 0.3152277827788371 L 3.462709395538065 0.2930322102601788 L 3.4417469103815543 0.272073652133484 L 3.384459399429292 0.21484504662845827 L 3.1573553381542525 -0.012259014646581079 L 3.1467405765622614 -0.037702240822870325 L 3.174041287841404 -0.02894496433373228 L 3.4015616142769134 0.19857928913159306 L 3.4579498354013674 0.25497536431567847 L 3.4793207316587167 0.27635018760284336 L 3.50159484477369 0.2541467610245537 C 3.506829575518094 0.24883741671365034 3.5162151767777527 0.24966209297495923 3.522415956856833 0.255870727113671 C 3.5253141048608616 0.2588356346245676 3.5270341439201633 0.2623503263096699 3.5275171685875013 0.26586894502458813 C 3.5284832179221777 0.26952108275324216 3.5317897770270448 0.2789655894601375 3.5402721614290797 0.2884807827037166 L 3.6754758709557755 0.42368056520059627 C 3.6766738330273823 0.42493339284244014 3.677780179916848 0.42627072081440365 3.6787863570904586 0.42768220858285266 C 3.6841585338784144 0.4243049629413017 3.692091134106243 0.42561659089976456 3.697604683967566 0.4310633812542193 C 3.703809391076462 0.4373348478699832 3.7046379943675865 0.4466419085333271 3.699328650056683 0.45195125284423054" fill="#302c2d" transform="matrix(1,0,0,1,0,0)" fill-rule="nonzero"></path></g></g></g><defs><clipPath id="SvgjsClipPath1003"><path d=" M 2.56533203125 -0.32060546874999984 h 1.8531963564410714 v 1.5572265624999997 h -1.8531963564410714 Z"></path></clipPath><clipPath id="c5327e9aa-80fd-421a-8554-15d55f271299d77d4b9e-4f14-4c37-9527-75f2bf77e220"><path d=" M 3.3236571967919275 -0.3245324985657569 L 4.4224519203301655 -0.3245324985657569 L 4.4224519203301655 1.0802878044547874 L 3.3236571967919275 1.0802878044547874 Z"></path></clipPath><clipPath id="e5327e9aa-80fd-421a-8554-15d55f271299d77d4b9e-4f14-4c37-9527-75f2bf77e220"><path d=" M 2.7807492517933468 1.1240898950197407 L 4.127755821866318 1.1240898950197407 L 4.127755821866318 1.2405498912358284 L 2.7807531788231628 1.2405498912358284 Z"></path></clipPath><clipPath id="d5327e9aa-80fd-421a-8554-15d55f271299d77d4b9e-4f14-4c37-9527-75f2bf77e220"><path d=" M 2.7807492517933468 1.1240898950197407 L 4.127755821866318 1.1240898950197407 L 4.127755821866318 1.2405498912358284 L 2.7807531788231628 1.2405498912358284 Z"></path></clipPath><clipPath id="b5327e9aa-80fd-421a-8554-15d55f271299d77d4b9e-4f14-4c37-9527-75f2bf77e220"><path d=" M 2.561405001434243 -0.3245324985657569 L 4.4224519203301655 -0.3245324985657569 L 4.4224519203301655 1.2405498912358284 L 2.561405001434243 1.2405498912358284 Z"></path></clipPath><clipPath id="f5327e9aa-80fd-421a-8554-15d55f271299d77d4b9e-4f14-4c37-9527-75f2bf77e220"><path d=" M 3.4265846482629168 0.8721041728320652 L 3.7237390673914286 0.8721041728320652 L 3.7237390673914286 1.0779630028038594 L 3.4265846482629168 1.0779630028038594 Z"></path></clipPath><clipPath id="g5327e9aa-80fd-421a-8554-15d55f271299d77d4b9e-4f14-4c37-9527-75f2bf77e220"><path d=" M 2.561405001434243 -0.32437149034331086 L 3.232781799825496 -0.32437149034331086 L 3.232781799825496 0.894028780293436 L 2.561405001434243 0.894028780293436 Z"></path></clipPath></defs></svg>